<svg xmlns="http://www.w3.org/2000/svg" xmlns:xlink="http://www.w3.org/1999/xlink" width="100" zoomAndPan="magnify" viewBox="0 0 75 37.500001" height="40" preserveAspectRatio="xMidYMid meet" version="1.2"><defs/><g id="8912a1a31f"><g style="fill:#ffdf2b;fill-opacity:1;"><g transform="translate(5.584963, 20.197291)"><path style="stroke:none" d="M 0.441406 0.105469 C 0.367188 0.105469 0.304688 0.0820312 0.257812 0.03125 C 0.210938 -0.0195312 0.1875 -0.0820312 0.1875 -0.160156 L 0.1875 -4.082031 C 0.1875 -4.15625 0.207031 -4.214844 0.246094 -4.253906 C 0.285156 -4.296875 0.339844 -4.320312 0.414062 -4.320312 L 2.003906 -4.320312 C 2.074219 -4.320312 2.128906 -4.308594 2.167969 -4.285156 C 2.207031 -4.257812 2.242188 -4.210938 2.265625 -4.148438 L 2.265625 -4.144531 L 2.855469 -2.339844 L 2.753906 -2.304688 L 2.855469 -2.34375 C 2.855469 -2.339844 2.855469 -2.335938 2.855469 -2.335938 C 2.855469 -2.335938 2.855469 -2.339844 2.851562 -2.339844 C 2.839844 -2.359375 2.820312 -2.367188 2.792969 -2.367188 C 2.765625 -2.367188 2.742188 -2.355469 2.726562 -2.335938 C 2.726562 -2.335938 2.722656 -2.332031 2.722656 -2.332031 C 2.726562 -2.335938 2.726562 -2.339844 2.726562 -2.34375 L 2.828125 -2.304688 L 2.726562 -2.335938 L 3.253906 -4.078125 L 3.355469 -4.050781 L 3.253906 -4.078125 C 3.273438 -4.148438 3.300781 -4.203125 3.339844 -4.246094 C 3.386719 -4.296875 3.441406 -4.320312 3.507812 -4.320312 L 5.152344 -4.320312 C 5.21875 -4.320312 5.269531 -4.296875 5.308594 -4.253906 C 5.34375 -4.214844 5.359375 -4.160156 5.359375 -4.09375 L 5.359375 -0.164062 C 5.359375 -0.0703125 5.332031 -0.00390625 5.28125 0.0429688 C 5.230469 0.0859375 5.164062 0.105469 5.070312 0.105469 L 4.113281 0.105469 C 4.023438 0.105469 3.957031 0.0820312 3.917969 0.0390625 C 3.878906 -0.00390625 3.859375 -0.0664062 3.859375 -0.140625 L 3.859375 -2.691406 C 3.859375 -2.691406 3.859375 -2.695312 3.855469 -2.695312 C 3.855469 -2.695312 3.855469 -2.695312 3.859375 -2.695312 C 3.859375 -2.6875 3.859375 -2.683594 3.863281 -2.679688 C 3.871094 -2.664062 3.878906 -2.65625 3.890625 -2.644531 C 3.90625 -2.636719 3.921875 -2.628906 3.941406 -2.628906 C 3.964844 -2.628906 3.980469 -2.636719 3.996094 -2.652344 C 3.996094 -2.65625 4 -2.65625 4 -2.660156 C 4 -2.65625 3.996094 -2.65625 3.996094 -2.652344 L 3.179688 -0.0664062 L 3.175781 -0.0625 C 3.15625 -0.0117188 3.125 0.03125 3.089844 0.0585938 C 3.046875 0.0898438 2.996094 0.105469 2.941406 0.105469 L 2.34375 0.105469 C 2.289062 0.105469 2.238281 0.0898438 2.195312 0.0585938 C 2.15625 0.0273438 2.125 -0.0117188 2.109375 -0.0703125 L 1.289062 -2.609375 C 1.289062 -2.613281 1.285156 -2.621094 1.285156 -2.625 L 1.285156 -2.621094 C 1.300781 -2.601562 1.320312 -2.589844 1.351562 -2.589844 C 1.371094 -2.589844 1.386719 -2.597656 1.402344 -2.609375 C 1.414062 -2.617188 1.421875 -2.625 1.425781 -2.636719 C 1.429688 -2.640625 1.429688 -2.644531 1.429688 -2.644531 C 1.429688 -2.644531 1.429688 -2.640625 1.429688 -2.636719 L 1.429688 -0.125 C 1.429688 -0.046875 1.414062 0.0078125 1.378906 0.046875 C 1.34375 0.0859375 1.28125 0.105469 1.199219 0.105469 Z M 0.441406 -0.105469 L 1.199219 -0.105469 C 1.214844 -0.105469 1.230469 -0.109375 1.238281 -0.109375 C 1.230469 -0.105469 1.226562 -0.101562 1.222656 -0.0976562 C 1.21875 -0.09375 1.214844 -0.0898438 1.214844 -0.0859375 C 1.214844 -0.09375 1.214844 -0.109375 1.214844 -0.125 L 1.214844 -2.636719 C 1.214844 -2.671875 1.222656 -2.703125 1.234375 -2.726562 C 1.242188 -2.75 1.257812 -2.765625 1.277344 -2.78125 C 1.296875 -2.796875 1.324219 -2.804688 1.351562 -2.804688 C 1.417969 -2.804688 1.464844 -2.761719 1.492188 -2.671875 L 2.308594 -0.136719 C 2.316406 -0.121094 2.320312 -0.113281 2.324219 -0.109375 C 2.328125 -0.109375 2.335938 -0.105469 2.34375 -0.105469 L 2.941406 -0.105469 C 2.949219 -0.105469 2.957031 -0.109375 2.960938 -0.109375 C 2.964844 -0.117188 2.972656 -0.125 2.980469 -0.140625 L 3.078125 -0.101562 L 2.976562 -0.132812 L 3.792969 -2.71875 C 3.804688 -2.75 3.820312 -2.777344 3.835938 -2.796875 C 3.863281 -2.828125 3.898438 -2.84375 3.941406 -2.84375 C 3.964844 -2.84375 3.988281 -2.835938 4.011719 -2.824219 C 4.027344 -2.8125 4.042969 -2.792969 4.054688 -2.773438 C 4.066406 -2.75 4.070312 -2.722656 4.070312 -2.691406 L 4.070312 -0.140625 C 4.070312 -0.128906 4.070312 -0.117188 4.074219 -0.109375 C 4.074219 -0.105469 4.074219 -0.105469 4.074219 -0.105469 C 4.070312 -0.109375 4.070312 -0.109375 4.066406 -0.113281 C 4.066406 -0.113281 4.066406 -0.109375 4.070312 -0.109375 C 4.078125 -0.109375 4.09375 -0.105469 4.113281 -0.105469 L 5.070312 -0.105469 C 5.109375 -0.105469 5.132812 -0.109375 5.140625 -0.117188 C 5.140625 -0.117188 5.140625 -0.117188 5.140625 -0.121094 C 5.144531 -0.132812 5.148438 -0.144531 5.148438 -0.164062 L 5.148438 -4.09375 C 5.148438 -4.105469 5.144531 -4.113281 5.144531 -4.117188 C 5.144531 -4.117188 5.144531 -4.117188 5.148438 -4.113281 C 5.148438 -4.109375 5.152344 -4.109375 5.15625 -4.105469 C 5.15625 -4.105469 5.152344 -4.105469 5.152344 -4.105469 L 3.507812 -4.105469 C 3.492188 -4.105469 3.476562 -4.078125 3.457031 -4.019531 L 2.929688 -2.273438 L 2.929688 -2.269531 C 2.898438 -2.191406 2.855469 -2.152344 2.792969 -2.152344 C 2.730469 -2.152344 2.683594 -2.191406 2.65625 -2.269531 L 2.652344 -2.269531 L 2.0625 -4.078125 L 2.164062 -4.113281 L 2.0625 -4.074219 C 2.058594 -4.089844 2.054688 -4.097656 2.050781 -4.105469 C 2.046875 -4.105469 2.046875 -4.109375 2.046875 -4.109375 C 2.050781 -4.105469 2.050781 -4.105469 2.050781 -4.105469 C 2.054688 -4.101562 2.054688 -4.101562 2.054688 -4.101562 C 2.054688 -4.101562 2.050781 -4.105469 2.046875 -4.105469 C 2.035156 -4.105469 2.023438 -4.105469 2.003906 -4.105469 L 0.414062 -4.105469 C 0.40625 -4.105469 0.398438 -4.105469 0.394531 -4.105469 C 0.398438 -4.105469 0.398438 -4.109375 0.402344 -4.109375 C 0.402344 -4.113281 0.40625 -4.113281 0.40625 -4.113281 C 0.402344 -4.105469 0.402344 -4.097656 0.402344 -4.082031 L 0.402344 -0.160156 C 0.402344 -0.136719 0.40625 -0.125 0.414062 -0.117188 C 0.417969 -0.109375 0.429688 -0.105469 0.441406 -0.105469 Z M 0.441406 -0.105469 "/></g></g><g style="fill:#ffdf2b;fill-opacity:1;"><g transform="translate(11.133155, 20.197291)"><path style="stroke:none" d="M 0.246094 0.105469 C 0.183594 0.105469 0.132812 0.0859375 0.0898438 0.0390625 C 0.0546875 0 0.0351562 -0.0546875 0.0351562 -0.121094 C 0.0351562 -0.15625 0.0429688 -0.199219 0.0585938 -0.242188 L 1.433594 -4.121094 C 1.460938 -4.1875 1.492188 -4.238281 1.527344 -4.265625 C 1.570312 -4.300781 1.628906 -4.320312 1.703125 -4.320312 L 2.824219 -4.320312 C 2.890625 -4.320312 2.957031 -4.296875 3.011719 -4.253906 C 3.0625 -4.214844 3.097656 -4.164062 3.125 -4.101562 L 3.125 -4.097656 L 4.492188 -0.222656 L 4.492188 -0.21875 C 4.503906 -0.179688 4.507812 -0.148438 4.507812 -0.125 C 4.507812 -0.0703125 4.496094 -0.0234375 4.46875 0.0195312 C 4.433594 0.078125 4.378906 0.105469 4.308594 0.105469 L 3.199219 0.105469 C 3.140625 0.105469 3.09375 0.0898438 3.050781 0.0585938 C 3.011719 0.03125 2.984375 -0.0117188 2.96875 -0.0664062 L 3.074219 -0.0976562 L 2.972656 -0.0625 L 2.75 -0.714844 L 2.851562 -0.75 L 2.753906 -0.707031 C 2.75 -0.71875 2.746094 -0.722656 2.742188 -0.730469 C 2.742188 -0.730469 2.742188 -0.730469 2.742188 -0.734375 C 2.742188 -0.730469 2.742188 -0.730469 2.746094 -0.726562 C 2.753906 -0.71875 2.761719 -0.714844 2.773438 -0.710938 C 2.769531 -0.710938 2.769531 -0.710938 2.765625 -0.710938 L 1.5625 -0.710938 C 1.558594 -0.710938 1.558594 -0.710938 1.558594 -0.710938 C 1.5625 -0.710938 1.566406 -0.714844 1.570312 -0.714844 C 1.574219 -0.71875 1.578125 -0.722656 1.578125 -0.726562 L 1.578125 -0.722656 L 1.34375 -0.046875 C 1.324219 0.00390625 1.292969 0.0429688 1.25 0.0703125 C 1.210938 0.09375 1.160156 0.105469 1.105469 0.105469 Z M 0.246094 -0.105469 L 1.105469 -0.105469 C 1.121094 -0.105469 1.128906 -0.109375 1.136719 -0.113281 C 1.140625 -0.113281 1.140625 -0.117188 1.144531 -0.125 L 1.242188 -0.0859375 L 1.144531 -0.121094 L 1.375 -0.789062 L 1.476562 -0.753906 L 1.375 -0.785156 C 1.386719 -0.828125 1.410156 -0.863281 1.445312 -0.886719 C 1.476562 -0.914062 1.515625 -0.925781 1.5625 -0.925781 L 2.765625 -0.925781 C 2.820312 -0.925781 2.863281 -0.910156 2.894531 -0.878906 C 2.914062 -0.859375 2.933594 -0.832031 2.949219 -0.792969 L 2.949219 -0.789062 L 3.175781 -0.128906 L 3.175781 -0.125 C 3.175781 -0.117188 3.179688 -0.109375 3.183594 -0.109375 C 3.183594 -0.105469 3.1875 -0.105469 3.199219 -0.105469 L 4.308594 -0.105469 C 4.300781 -0.105469 4.292969 -0.101562 4.289062 -0.09375 C 4.292969 -0.101562 4.292969 -0.109375 4.292969 -0.125 C 4.292969 -0.132812 4.292969 -0.144531 4.285156 -0.167969 L 4.390625 -0.191406 L 4.289062 -0.15625 L 2.925781 -4.023438 L 3.027344 -4.058594 L 2.929688 -4.019531 C 2.917969 -4.046875 2.898438 -4.070312 2.878906 -4.085938 C 2.863281 -4.101562 2.84375 -4.105469 2.824219 -4.105469 L 1.703125 -4.105469 C 1.6875 -4.105469 1.675781 -4.105469 1.667969 -4.105469 C 1.664062 -4.101562 1.664062 -4.101562 1.660156 -4.101562 C 1.664062 -4.101562 1.664062 -4.101562 1.664062 -4.105469 C 1.65625 -4.097656 1.644531 -4.078125 1.632812 -4.046875 L 1.535156 -4.082031 L 1.632812 -4.046875 L 0.261719 -0.175781 C 0.253906 -0.152344 0.25 -0.132812 0.25 -0.121094 C 0.25 -0.113281 0.25 -0.105469 0.25 -0.101562 C 0.25 -0.105469 0.246094 -0.105469 0.246094 -0.105469 Z M 2.480469 -1.890625 C 2.480469 -1.890625 2.484375 -1.890625 2.484375 -1.890625 C 2.480469 -1.890625 2.480469 -1.890625 2.476562 -1.886719 C 2.46875 -1.886719 2.464844 -1.882812 2.457031 -1.875 C 2.445312 -1.863281 2.4375 -1.851562 2.4375 -1.839844 C 2.433594 -1.847656 2.433594 -1.859375 2.429688 -1.871094 L 2.53125 -1.898438 L 2.433594 -1.863281 L 2.089844 -2.832031 L 2.191406 -2.867188 L 2.09375 -2.828125 C 2.097656 -2.820312 2.101562 -2.8125 2.109375 -2.808594 C 2.125 -2.796875 2.140625 -2.789062 2.15625 -2.789062 C 2.175781 -2.789062 2.191406 -2.796875 2.207031 -2.808594 C 2.214844 -2.8125 2.21875 -2.820312 2.222656 -2.828125 L 2.125 -2.867188 L 2.222656 -2.832031 L 1.875 -1.859375 L 1.871094 -1.855469 L 1.875 -1.855469 C 1.871094 -1.851562 1.871094 -1.851562 1.871094 -1.84375 C 1.871094 -1.855469 1.867188 -1.867188 1.855469 -1.878906 C 1.847656 -1.882812 1.84375 -1.886719 1.835938 -1.890625 C 1.835938 -1.890625 1.832031 -1.890625 1.832031 -1.890625 C 1.832031 -1.890625 1.832031 -1.890625 1.835938 -1.890625 Z M 2.480469 -1.675781 L 1.835938 -1.675781 C 1.785156 -1.675781 1.742188 -1.691406 1.710938 -1.71875 C 1.675781 -1.75 1.660156 -1.792969 1.660156 -1.84375 C 1.660156 -1.886719 1.667969 -1.921875 1.683594 -1.949219 L 1.777344 -1.902344 L 1.675781 -1.9375 L 2.023438 -2.90625 C 2.035156 -2.933594 2.050781 -2.953125 2.070312 -2.972656 C 2.09375 -2.992188 2.125 -3.003906 2.15625 -3.003906 C 2.191406 -3.003906 2.21875 -2.992188 2.246094 -2.972656 C 2.265625 -2.953125 2.28125 -2.933594 2.289062 -2.90625 L 2.292969 -2.90625 L 2.636719 -1.925781 L 2.636719 -1.921875 C 2.644531 -1.882812 2.652344 -1.855469 2.652344 -1.839844 C 2.652344 -1.789062 2.632812 -1.75 2.601562 -1.71875 C 2.570312 -1.691406 2.53125 -1.675781 2.480469 -1.675781 Z M 2.480469 -1.675781 "/></g></g><g style="fill:#ffdf2b;fill-opacity:1;"><g transform="translate(15.670521, 20.197291)"><path style="stroke:none" d="M 4.324219 -0.222656 C 4.347656 -0.179688 4.359375 -0.132812 4.359375 -0.0859375 C 4.359375 -0.0234375 4.339844 0.0234375 4.296875 0.0585938 C 4.257812 0.0898438 4.210938 0.105469 4.152344 0.105469 L 3.042969 0.105469 C 2.972656 0.105469 2.914062 0.09375 2.863281 0.0664062 C 2.808594 0.0351562 2.769531 -0.0117188 2.742188 -0.0703125 L 2.050781 -1.648438 L 2.148438 -1.691406 L 2.058594 -1.632812 C 2.058594 -1.636719 2.054688 -1.636719 2.054688 -1.636719 C 2.058594 -1.636719 2.058594 -1.632812 2.058594 -1.632812 C 2.070312 -1.625 2.085938 -1.621094 2.101562 -1.621094 C 2.113281 -1.621094 2.121094 -1.621094 2.128906 -1.625 C 2.132812 -1.625 2.132812 -1.628906 2.132812 -1.628906 C 2.125 -1.621094 2.117188 -1.609375 2.105469 -1.597656 L 2.023438 -1.664062 L 2.105469 -1.597656 L 1.699219 -1.078125 C 1.695312 -1.070312 1.691406 -1.054688 1.691406 -1.023438 L 1.691406 -0.164062 C 1.691406 -0.0703125 1.664062 0 1.605469 0.046875 C 1.554688 0.0859375 1.488281 0.105469 1.398438 0.105469 L 0.449219 0.105469 C 0.363281 0.105469 0.296875 0.0859375 0.253906 0.0429688 C 0.210938 -0.00390625 0.1875 -0.0625 0.1875 -0.140625 L 0.1875 -4.082031 C 0.1875 -4.152344 0.207031 -4.207031 0.242188 -4.246094 C 0.28125 -4.296875 0.335938 -4.320312 0.402344 -4.320312 L 1.480469 -4.320312 C 1.550781 -4.320312 1.601562 -4.296875 1.640625 -4.253906 C 1.675781 -4.214844 1.691406 -4.160156 1.691406 -4.09375 L 1.691406 -2.65625 C 1.691406 -2.652344 1.691406 -2.644531 1.691406 -2.644531 L 1.691406 -2.640625 C 1.691406 -2.644531 1.691406 -2.644531 1.691406 -2.648438 C 1.683594 -2.660156 1.675781 -2.667969 1.667969 -2.675781 C 1.652344 -2.691406 1.632812 -2.695312 1.613281 -2.695312 C 1.597656 -2.695312 1.585938 -2.691406 1.578125 -2.6875 C 1.578125 -2.6875 1.582031 -2.691406 1.589844 -2.699219 L 1.667969 -2.628906 L 1.582031 -2.691406 L 2.628906 -4.15625 L 2.628906 -4.160156 C 2.671875 -4.214844 2.71875 -4.257812 2.765625 -4.28125 C 2.8125 -4.308594 2.875 -4.320312 2.957031 -4.320312 L 3.820312 -4.320312 C 3.886719 -4.320312 3.945312 -4.304688 3.988281 -4.277344 C 4.046875 -4.238281 4.074219 -4.1875 4.074219 -4.117188 C 4.074219 -4.0625 4.054688 -4.011719 4.015625 -3.972656 L 3.941406 -4.050781 L 4.023438 -3.980469 L 3.089844 -2.839844 L 3.089844 -2.835938 C 3.082031 -2.828125 3.078125 -2.820312 3.078125 -2.8125 C 3.078125 -2.800781 3.082031 -2.789062 3.089844 -2.773438 L 4.328125 -0.222656 Z M 4.136719 -0.128906 L 2.898438 -2.679688 C 2.875 -2.722656 2.863281 -2.769531 2.863281 -2.8125 C 2.863281 -2.871094 2.886719 -2.925781 2.929688 -2.976562 L 3.011719 -2.90625 L 2.925781 -2.976562 L 3.863281 -4.121094 L 3.867188 -4.125 C 3.863281 -4.121094 3.863281 -4.121094 3.863281 -4.117188 C 3.863281 -4.109375 3.867188 -4.101562 3.871094 -4.097656 C 3.863281 -4.105469 3.847656 -4.105469 3.820312 -4.105469 L 2.957031 -4.105469 C 2.910156 -4.105469 2.878906 -4.101562 2.863281 -4.09375 C 2.84375 -4.085938 2.824219 -4.0625 2.800781 -4.03125 L 2.714844 -4.09375 L 2.800781 -4.03125 L 1.753906 -2.5625 L 1.75 -2.558594 C 1.707031 -2.507812 1.660156 -2.484375 1.613281 -2.484375 C 1.582031 -2.484375 1.558594 -2.492188 1.535156 -2.511719 C 1.515625 -2.523438 1.503906 -2.542969 1.492188 -2.566406 C 1.484375 -2.589844 1.476562 -2.621094 1.476562 -2.65625 L 1.476562 -4.09375 C 1.476562 -4.105469 1.476562 -4.113281 1.476562 -4.117188 C 1.476562 -4.117188 1.476562 -4.117188 1.476562 -4.113281 C 1.480469 -4.109375 1.484375 -4.109375 1.488281 -4.105469 C 1.488281 -4.105469 1.484375 -4.105469 1.480469 -4.105469 L 0.402344 -4.105469 C 0.402344 -4.105469 0.398438 -4.105469 0.398438 -4.105469 C 0.402344 -4.109375 0.402344 -4.109375 0.40625 -4.113281 C 0.402344 -4.109375 0.402344 -4.097656 0.402344 -4.082031 L 0.402344 -0.140625 C 0.402344 -0.128906 0.402344 -0.117188 0.40625 -0.109375 C 0.402344 -0.109375 0.402344 -0.113281 0.402344 -0.113281 C 0.402344 -0.113281 0.402344 -0.113281 0.40625 -0.109375 C 0.414062 -0.109375 0.429688 -0.105469 0.449219 -0.105469 L 1.398438 -0.105469 C 1.4375 -0.105469 1.460938 -0.109375 1.472656 -0.121094 C 1.472656 -0.117188 1.472656 -0.117188 1.46875 -0.117188 C 1.472656 -0.121094 1.472656 -0.121094 1.472656 -0.121094 C 1.476562 -0.132812 1.476562 -0.148438 1.476562 -0.164062 L 1.476562 -1.023438 C 1.476562 -1.105469 1.496094 -1.171875 1.539062 -1.214844 L 1.617188 -1.148438 L 1.535156 -1.210938 L 1.9375 -1.730469 C 1.996094 -1.800781 2.046875 -1.832031 2.101562 -1.832031 C 2.15625 -1.832031 2.199219 -1.804688 2.234375 -1.75 L 2.242188 -1.742188 L 2.9375 -0.15625 C 2.953125 -0.125 2.988281 -0.105469 3.042969 -0.105469 L 4.152344 -0.105469 C 4.160156 -0.105469 4.164062 -0.105469 4.167969 -0.109375 C 4.164062 -0.105469 4.164062 -0.105469 4.160156 -0.101562 C 4.15625 -0.0976562 4.152344 -0.09375 4.148438 -0.0859375 C 4.148438 -0.0859375 4.148438 -0.0859375 4.148438 -0.0820312 C 4.148438 -0.0820312 4.148438 -0.0859375 4.148438 -0.0859375 C 4.148438 -0.0976562 4.144531 -0.113281 4.136719 -0.128906 Z M 4.136719 -0.128906 "/></g></g><g style="fill:#ffdf2b;fill-opacity:1;"><g transform="translate(20.054558, 20.197291)"><path style="stroke:none" d="M 4.324219 -0.222656 C 4.347656 -0.179688 4.359375 -0.132812 4.359375 -0.0859375 C 4.359375 -0.0234375 4.339844 0.0234375 4.296875 0.0585938 C 4.257812 0.0898438 4.210938 0.105469 4.152344 0.105469 L 3.042969 0.105469 C 2.972656 0.105469 2.914062 0.09375 2.863281 0.0664062 C 2.808594 0.0351562 2.769531 -0.0117188 2.742188 -0.0703125 L 2.050781 -1.648438 L 2.148438 -1.691406 L 2.058594 -1.632812 C 2.058594 -1.636719 2.054688 -1.636719 2.054688 -1.636719 C 2.058594 -1.636719 2.058594 -1.632812 2.058594 -1.632812 C 2.070312 -1.625 2.085938 -1.621094 2.101562 -1.621094 C 2.113281 -1.621094 2.121094 -1.621094 2.128906 -1.625 C 2.132812 -1.625 2.132812 -1.628906 2.132812 -1.628906 C 2.125 -1.621094 2.117188 -1.609375 2.105469 -1.597656 L 2.023438 -1.664062 L 2.105469 -1.597656 L 1.699219 -1.078125 C 1.695312 -1.070312 1.691406 -1.054688 1.691406 -1.023438 L 1.691406 -0.164062 C 1.691406 -0.0703125 1.664062 0 1.605469 0.046875 C 1.554688 0.0859375 1.488281 0.105469 1.398438 0.105469 L 0.449219 0.105469 C 0.363281 0.105469 0.296875 0.0859375 0.253906 0.0429688 C 0.210938 -0.00390625 0.1875 -0.0625 0.1875 -0.140625 L 0.1875 -4.082031 C 0.1875 -4.152344 0.207031 -4.207031 0.242188 -4.246094 C 0.28125 -4.296875 0.335938 -4.320312 0.402344 -4.320312 L 1.480469 -4.320312 C 1.550781 -4.320312 1.601562 -4.296875 1.640625 -4.253906 C 1.675781 -4.214844 1.691406 -4.160156 1.691406 -4.09375 L 1.691406 -2.65625 C 1.691406 -2.652344 1.691406 -2.644531 1.691406 -2.644531 L 1.691406 -2.640625 C 1.691406 -2.644531 1.691406 -2.644531 1.691406 -2.648438 C 1.683594 -2.660156 1.675781 -2.667969 1.667969 -2.675781 C 1.652344 -2.691406 1.632812 -2.695312 1.613281 -2.695312 C 1.597656 -2.695312 1.585938 -2.691406 1.578125 -2.6875 C 1.578125 -2.6875 1.582031 -2.691406 1.589844 -2.699219 L 1.667969 -2.628906 L 1.582031 -2.691406 L 2.628906 -4.15625 L 2.628906 -4.160156 C 2.671875 -4.214844 2.71875 -4.257812 2.765625 -4.28125 C 2.8125 -4.308594 2.875 -4.320312 2.957031 -4.320312 L 3.820312 -4.320312 C 3.886719 -4.320312 3.945312 -4.304688 3.988281 -4.277344 C 4.046875 -4.238281 4.074219 -4.1875 4.074219 -4.117188 C 4.074219 -4.0625 4.054688 -4.011719 4.015625 -3.972656 L 3.941406 -4.050781 L 4.023438 -3.980469 L 3.089844 -2.839844 L 3.089844 -2.835938 C 3.082031 -2.828125 3.078125 -2.820312 3.078125 -2.8125 C 3.078125 -2.800781 3.082031 -2.789062 3.089844 -2.773438 L 4.328125 -0.222656 Z M 4.136719 -0.128906 L 2.898438 -2.679688 C 2.875 -2.722656 2.863281 -2.769531 2.863281 -2.8125 C 2.863281 -2.871094 2.886719 -2.925781 2.929688 -2.976562 L 3.011719 -2.90625 L 2.925781 -2.976562 L 3.863281 -4.121094 L 3.867188 -4.125 C 3.863281 -4.121094 3.863281 -4.121094 3.863281 -4.117188 C 3.863281 -4.109375 3.867188 -4.101562 3.871094 -4.097656 C 3.863281 -4.105469 3.847656 -4.105469 3.820312 -4.105469 L 2.957031 -4.105469 C 2.910156 -4.105469 2.878906 -4.101562 2.863281 -4.09375 C 2.84375 -4.085938 2.824219 -4.0625 2.800781 -4.03125 L 2.714844 -4.09375 L 2.800781 -4.03125 L 1.753906 -2.5625 L 1.75 -2.558594 C 1.707031 -2.507812 1.660156 -2.484375 1.613281 -2.484375 C 1.582031 -2.484375 1.558594 -2.492188 1.535156 -2.511719 C 1.515625 -2.523438 1.503906 -2.542969 1.492188 -2.566406 C 1.484375 -2.589844 1.476562 -2.621094 1.476562 -2.65625 L 1.476562 -4.09375 C 1.476562 -4.105469 1.476562 -4.113281 1.476562 -4.117188 C 1.476562 -4.117188 1.476562 -4.117188 1.476562 -4.113281 C 1.480469 -4.109375 1.484375 -4.109375 1.488281 -4.105469 C 1.488281 -4.105469 1.484375 -4.105469 1.480469 -4.105469 L 0.402344 -4.105469 C 0.402344 -4.105469 0.398438 -4.105469 0.398438 -4.105469 C 0.402344 -4.109375 0.402344 -4.109375 0.40625 -4.113281 C 0.402344 -4.109375 0.402344 -4.097656 0.402344 -4.082031 L 0.402344 -0.140625 C 0.402344 -0.128906 0.402344 -0.117188 0.40625 -0.109375 C 0.402344 -0.109375 0.402344 -0.113281 0.402344 -0.113281 C 0.402344 -0.113281 0.402344 -0.113281 0.40625 -0.109375 C 0.414062 -0.109375 0.429688 -0.105469 0.449219 -0.105469 L 1.398438 -0.105469 C 1.4375 -0.105469 1.460938 -0.109375 1.472656 -0.121094 C 1.472656 -0.117188 1.472656 -0.117188 1.46875 -0.117188 C 1.472656 -0.121094 1.472656 -0.121094 1.472656 -0.121094 C 1.476562 -0.132812 1.476562 -0.148438 1.476562 -0.164062 L 1.476562 -1.023438 C 1.476562 -1.105469 1.496094 -1.171875 1.539062 -1.214844 L 1.617188 -1.148438 L 1.535156 -1.210938 L 1.9375 -1.730469 C 1.996094 -1.800781 2.046875 -1.832031 2.101562 -1.832031 C 2.15625 -1.832031 2.199219 -1.804688 2.234375 -1.75 L 2.242188 -1.742188 L 2.9375 -0.15625 C 2.953125 -0.125 2.988281 -0.105469 3.042969 -0.105469 L 4.152344 -0.105469 C 4.160156 -0.105469 4.164062 -0.105469 4.167969 -0.109375 C 4.164062 -0.105469 4.164062 -0.105469 4.160156 -0.101562 C 4.15625 -0.0976562 4.152344 -0.09375 4.148438 -0.0859375 C 4.148438 -0.0859375 4.148438 -0.0859375 4.148438 -0.0820312 C 4.148438 -0.0820312 4.148438 -0.0859375 4.148438 -0.0859375 C 4.148438 -0.0976562 4.144531 -0.113281 4.136719 -0.128906 Z M 4.136719 -0.128906 "/></g></g><g style="fill:#ffdf2b;fill-opacity:1;"><g transform="translate(24.438595, 20.197291)"><path style="stroke:none" d="M 0.246094 0.105469 C 0.183594 0.105469 0.132812 0.0859375 0.0898438 0.0390625 C 0.0546875 0 0.0351562 -0.0546875 0.0351562 -0.121094 C 0.0351562 -0.15625 0.0429688 -0.199219 0.0585938 -0.242188 L 1.433594 -4.121094 C 1.460938 -4.1875 1.492188 -4.238281 1.527344 -4.265625 C 1.570312 -4.300781 1.628906 -4.320312 1.703125 -4.320312 L 2.824219 -4.320312 C 2.890625 -4.320312 2.957031 -4.296875 3.011719 -4.253906 C 3.0625 -4.214844 3.097656 -4.164062 3.125 -4.101562 L 3.125 -4.097656 L 4.492188 -0.222656 L 4.492188 -0.21875 C 4.503906 -0.179688 4.507812 -0.148438 4.507812 -0.125 C 4.507812 -0.0703125 4.496094 -0.0234375 4.46875 0.0195312 C 4.433594 0.078125 4.378906 0.105469 4.308594 0.105469 L 3.199219 0.105469 C 3.140625 0.105469 3.09375 0.0898438 3.050781 0.0585938 C 3.011719 0.03125 2.984375 -0.0117188 2.96875 -0.0664062 L 3.074219 -0.0976562 L 2.972656 -0.0625 L 2.75 -0.714844 L 2.851562 -0.75 L 2.753906 -0.707031 C 2.75 -0.71875 2.746094 -0.722656 2.742188 -0.730469 C 2.742188 -0.730469 2.742188 -0.730469 2.742188 -0.734375 C 2.742188 -0.730469 2.742188 -0.730469 2.746094 -0.726562 C 2.753906 -0.71875 2.761719 -0.714844 2.773438 -0.710938 C 2.769531 -0.710938 2.769531 -0.710938 2.765625 -0.710938 L 1.5625 -0.710938 C 1.558594 -0.710938 1.558594 -0.710938 1.558594 -0.710938 C 1.5625 -0.710938 1.566406 -0.714844 1.570312 -0.714844 C 1.574219 -0.71875 1.578125 -0.722656 1.578125 -0.726562 L 1.578125 -0.722656 L 1.34375 -0.046875 C 1.324219 0.00390625 1.292969 0.0429688 1.25 0.0703125 C 1.210938 0.09375 1.160156 0.105469 1.105469 0.105469 Z M 0.246094 -0.105469 L 1.105469 -0.105469 C 1.121094 -0.105469 1.128906 -0.109375 1.136719 -0.113281 C 1.140625 -0.113281 1.140625 -0.117188 1.144531 -0.125 L 1.242188 -0.0859375 L 1.144531 -0.121094 L 1.375 -0.789062 L 1.476562 -0.753906 L 1.375 -0.785156 C 1.386719 -0.828125 1.410156 -0.863281 1.445312 -0.886719 C 1.476562 -0.914062 1.515625 -0.925781 1.5625 -0.925781 L 2.765625 -0.925781 C 2.820312 -0.925781 2.863281 -0.910156 2.894531 -0.878906 C 2.914062 -0.859375 2.933594 -0.832031 2.949219 -0.792969 L 2.949219 -0.789062 L 3.175781 -0.128906 L 3.175781 -0.125 C 3.175781 -0.117188 3.179688 -0.109375 3.183594 -0.109375 C 3.183594 -0.105469 3.1875 -0.105469 3.199219 -0.105469 L 4.308594 -0.105469 C 4.300781 -0.105469 4.292969 -0.101562 4.289062 -0.09375 C 4.292969 -0.101562 4.292969 -0.109375 4.292969 -0.125 C 4.292969 -0.132812 4.292969 -0.144531 4.285156 -0.167969 L 4.390625 -0.191406 L 4.289062 -0.15625 L 2.925781 -4.023438 L 3.027344 -4.058594 L 2.929688 -4.019531 C 2.917969 -4.046875 2.898438 -4.070312 2.878906 -4.085938 C 2.863281 -4.101562 2.84375 -4.105469 2.824219 -4.105469 L 1.703125 -4.105469 C 1.6875 -4.105469 1.675781 -4.105469 1.667969 -4.105469 C 1.664062 -4.101562 1.664062 -4.101562 1.660156 -4.101562 C 1.664062 -4.101562 1.664062 -4.101562 1.664062 -4.105469 C 1.65625 -4.097656 1.644531 -4.078125 1.632812 -4.046875 L 1.535156 -4.082031 L 1.632812 -4.046875 L 0.261719 -0.175781 C 0.253906 -0.152344 0.25 -0.132812 0.25 -0.121094 C 0.25 -0.113281 0.25 -0.105469 0.25 -0.101562 C 0.25 -0.105469 0.246094 -0.105469 0.246094 -0.105469 Z M 2.480469 -1.890625 C 2.480469 -1.890625 2.484375 -1.890625 2.484375 -1.890625 C 2.480469 -1.890625 2.480469 -1.890625 2.476562 -1.886719 C 2.46875 -1.886719 2.464844 -1.882812 2.457031 -1.875 C 2.445312 -1.863281 2.4375 -1.851562 2.4375 -1.839844 C 2.433594 -1.847656 2.433594 -1.859375 2.429688 -1.871094 L 2.53125 -1.898438 L 2.433594 -1.863281 L 2.089844 -2.832031 L 2.191406 -2.867188 L 2.09375 -2.828125 C 2.097656 -2.820312 2.101562 -2.8125 2.109375 -2.808594 C 2.125 -2.796875 2.140625 -2.789062 2.15625 -2.789062 C 2.175781 -2.789062 2.191406 -2.796875 2.207031 -2.808594 C 2.214844 -2.8125 2.21875 -2.820312 2.222656 -2.828125 L 2.125 -2.867188 L 2.222656 -2.832031 L 1.875 -1.859375 L 1.871094 -1.855469 L 1.875 -1.855469 C 1.871094 -1.851562 1.871094 -1.851562 1.871094 -1.84375 C 1.871094 -1.855469 1.867188 -1.867188 1.855469 -1.878906 C 1.847656 -1.882812 1.84375 -1.886719 1.835938 -1.890625 C 1.835938 -1.890625 1.832031 -1.890625 1.832031 -1.890625 C 1.832031 -1.890625 1.832031 -1.890625 1.835938 -1.890625 Z M 2.480469 -1.675781 L 1.835938 -1.675781 C 1.785156 -1.675781 1.742188 -1.691406 1.710938 -1.71875 C 1.675781 -1.75 1.660156 -1.792969 1.660156 -1.84375 C 1.660156 -1.886719 1.667969 -1.921875 1.683594 -1.949219 L 1.777344 -1.902344 L 1.675781 -1.9375 L 2.023438 -2.90625 C 2.035156 -2.933594 2.050781 -2.953125 2.070312 -2.972656 C 2.09375 -2.992188 2.125 -3.003906 2.15625 -3.003906 C 2.191406 -3.003906 2.21875 -2.992188 2.246094 -2.972656 C 2.265625 -2.953125 2.28125 -2.933594 2.289062 -2.90625 L 2.292969 -2.90625 L 2.636719 -1.925781 L 2.636719 -1.921875 C 2.644531 -1.882812 2.652344 -1.855469 2.652344 -1.839844 C 2.652344 -1.789062 2.632812 -1.75 2.601562 -1.71875 C 2.570312 -1.691406 2.53125 -1.675781 2.480469 -1.675781 Z M 2.480469 -1.675781 "/></g></g><g style="fill:#ffdf2b;fill-opacity:1;"><g transform="translate(28.975962, 20.197291)"><path style="stroke:none" d="M 4.078125 -0.230469 C 4.089844 -0.199219 4.097656 -0.164062 4.097656 -0.121094 C 4.097656 -0.0585938 4.078125 -0.00390625 4.039062 0.0390625 C 3.996094 0.0820312 3.945312 0.105469 3.878906 0.105469 L 2.777344 0.105469 C 2.714844 0.105469 2.660156 0.0898438 2.613281 0.0546875 C 2.570312 0.0195312 2.539062 -0.0273438 2.519531 -0.0898438 L 2.625 -0.121094 L 2.523438 -0.0820312 L 1.988281 -1.546875 C 1.988281 -1.554688 1.984375 -1.558594 1.980469 -1.558594 C 1.96875 -1.566406 1.949219 -1.570312 1.914062 -1.570312 L 1.652344 -1.570312 C 1.664062 -1.570312 1.675781 -1.574219 1.6875 -1.589844 C 1.691406 -1.597656 1.691406 -1.605469 1.691406 -1.613281 L 1.691406 -0.164062 C 1.691406 -0.0703125 1.664062 0 1.605469 0.046875 C 1.554688 0.0859375 1.488281 0.105469 1.398438 0.105469 L 0.441406 0.105469 C 0.355469 0.105469 0.289062 0.0820312 0.246094 0.0390625 C 0.207031 -0.00390625 0.1875 -0.0664062 0.1875 -0.140625 L 0.1875 -4.082031 C 0.1875 -4.152344 0.207031 -4.207031 0.238281 -4.25 C 0.28125 -4.296875 0.332031 -4.320312 0.402344 -4.320312 L 2.300781 -4.320312 C 2.871094 -4.320312 3.316406 -4.207031 3.636719 -3.984375 C 3.972656 -3.753906 4.136719 -3.429688 4.136719 -3.011719 C 4.136719 -2.726562 4.0625 -2.472656 3.914062 -2.25 C 3.761719 -2.027344 3.566406 -1.871094 3.324219 -1.78125 L 3.289062 -1.878906 L 3.335938 -1.785156 C 3.34375 -1.789062 3.347656 -1.792969 3.355469 -1.800781 C 3.359375 -1.808594 3.359375 -1.816406 3.359375 -1.824219 C 3.359375 -1.824219 3.359375 -1.828125 3.359375 -1.828125 C 3.359375 -1.828125 3.359375 -1.824219 3.359375 -1.824219 C 3.363281 -1.820312 3.363281 -1.8125 3.367188 -1.804688 L 3.265625 -1.773438 L 3.363281 -1.816406 L 4.078125 -0.226562 L 3.980469 -0.183594 Z M 3.882812 -0.136719 L 3.167969 -1.734375 L 3.164062 -1.738281 C 3.152344 -1.773438 3.148438 -1.800781 3.148438 -1.824219 C 3.148438 -1.894531 3.179688 -1.945312 3.242188 -1.976562 L 3.246094 -1.976562 L 3.25 -1.980469 C 3.449219 -2.054688 3.609375 -2.183594 3.738281 -2.371094 C 3.863281 -2.558594 3.925781 -2.769531 3.925781 -3.011719 C 3.925781 -3.355469 3.789062 -3.621094 3.515625 -3.8125 C 3.234375 -4.007812 2.828125 -4.105469 2.300781 -4.105469 L 0.402344 -4.105469 C 0.398438 -4.105469 0.398438 -4.105469 0.394531 -4.105469 C 0.398438 -4.109375 0.402344 -4.109375 0.40625 -4.113281 C 0.402344 -4.105469 0.402344 -4.09375 0.402344 -4.082031 L 0.402344 -0.140625 C 0.402344 -0.128906 0.402344 -0.117188 0.40625 -0.109375 C 0.40625 -0.105469 0.40625 -0.105469 0.40625 -0.105469 C 0.402344 -0.109375 0.402344 -0.109375 0.398438 -0.113281 C 0.398438 -0.113281 0.398438 -0.109375 0.402344 -0.109375 C 0.410156 -0.109375 0.425781 -0.105469 0.441406 -0.105469 L 1.398438 -0.105469 C 1.4375 -0.105469 1.460938 -0.109375 1.472656 -0.121094 C 1.472656 -0.117188 1.472656 -0.117188 1.46875 -0.117188 C 1.472656 -0.121094 1.472656 -0.121094 1.472656 -0.121094 C 1.476562 -0.132812 1.476562 -0.148438 1.476562 -0.164062 L 1.476562 -1.613281 C 1.476562 -1.648438 1.492188 -1.683594 1.515625 -1.714844 C 1.550781 -1.761719 1.59375 -1.78125 1.652344 -1.78125 L 1.914062 -1.78125 C 1.984375 -1.78125 2.042969 -1.769531 2.085938 -1.746094 C 2.132812 -1.71875 2.167969 -1.675781 2.191406 -1.621094 L 2.726562 -0.152344 L 2.726562 -0.148438 C 2.730469 -0.132812 2.738281 -0.121094 2.746094 -0.113281 C 2.75 -0.109375 2.761719 -0.105469 2.777344 -0.105469 L 3.878906 -0.105469 C 3.882812 -0.105469 3.882812 -0.105469 3.882812 -0.105469 C 3.882812 -0.109375 3.886719 -0.113281 3.886719 -0.121094 C 3.886719 -0.125 3.886719 -0.132812 3.882812 -0.136719 C 3.882812 -0.136719 3.886719 -0.136719 3.886719 -0.132812 Z M 2.25 -2.628906 C 2.363281 -2.628906 2.449219 -2.65625 2.507812 -2.710938 C 2.5625 -2.761719 2.589844 -2.835938 2.589844 -2.929688 C 2.589844 -3.039062 2.558594 -3.117188 2.488281 -3.175781 C 2.417969 -3.234375 2.324219 -3.265625 2.214844 -3.265625 L 1.714844 -3.265625 C 1.699219 -3.265625 1.6875 -3.265625 1.679688 -3.261719 C 1.675781 -3.261719 1.675781 -3.261719 1.675781 -3.261719 C 1.679688 -3.265625 1.679688 -3.265625 1.683594 -3.269531 C 1.6875 -3.273438 1.691406 -3.277344 1.691406 -3.28125 C 1.691406 -3.277344 1.691406 -3.269531 1.691406 -3.257812 L 1.691406 -2.640625 C 1.691406 -2.628906 1.691406 -2.617188 1.695312 -2.609375 C 1.695312 -2.609375 1.695312 -2.605469 1.695312 -2.605469 C 1.695312 -2.605469 1.691406 -2.609375 1.691406 -2.609375 C 1.683594 -2.621094 1.679688 -2.625 1.671875 -2.628906 C 1.671875 -2.628906 1.675781 -2.628906 1.679688 -2.628906 Z M 2.25 -2.414062 L 1.679688 -2.414062 C 1.605469 -2.414062 1.550781 -2.441406 1.515625 -2.488281 C 1.492188 -2.527344 1.476562 -2.578125 1.476562 -2.640625 L 1.476562 -3.257812 C 1.476562 -3.332031 1.5 -3.390625 1.542969 -3.425781 C 1.582031 -3.460938 1.636719 -3.480469 1.714844 -3.480469 L 2.214844 -3.480469 C 2.375 -3.480469 2.515625 -3.433594 2.625 -3.339844 C 2.746094 -3.238281 2.804688 -3.105469 2.804688 -2.929688 C 2.804688 -2.773438 2.753906 -2.648438 2.65625 -2.554688 C 2.554688 -2.460938 2.421875 -2.414062 2.25 -2.414062 Z M 2.25 -2.414062 "/></g></g><g style="fill:#ffdf2b;fill-opacity:1;"><g transform="translate(33.172598, 20.197291)"><path style="stroke:none" d="M 0.246094 0.105469 C 0.183594 0.105469 0.132812 0.0859375 0.0898438 0.0390625 C 0.0546875 0 0.0351562 -0.0546875 0.0351562 -0.121094 C 0.0351562 -0.15625 0.0429688 -0.199219 0.0585938 -0.242188 L 1.433594 -4.121094 C 1.460938 -4.1875 1.492188 -4.238281 1.527344 -4.265625 C 1.570312 -4.300781 1.628906 -4.320312 1.703125 -4.320312 L 2.824219 -4.320312 C 2.890625 -4.320312 2.957031 -4.296875 3.011719 -4.253906 C 3.0625 -4.214844 3.097656 -4.164062 3.125 -4.101562 L 3.125 -4.097656 L 4.492188 -0.222656 L 4.492188 -0.21875 C 4.503906 -0.179688 4.507812 -0.148438 4.507812 -0.125 C 4.507812 -0.0703125 4.496094 -0.0234375 4.46875 0.0195312 C 4.433594 0.078125 4.378906 0.105469 4.308594 0.105469 L 3.199219 0.105469 C 3.140625 0.105469 3.09375 0.0898438 3.050781 0.0585938 C 3.011719 0.03125 2.984375 -0.0117188 2.96875 -0.0664062 L 3.074219 -0.0976562 L 2.972656 -0.0625 L 2.75 -0.714844 L 2.851562 -0.75 L 2.753906 -0.707031 C 2.75 -0.71875 2.746094 -0.722656 2.742188 -0.730469 C 2.742188 -0.730469 2.742188 -0.730469 2.742188 -0.734375 C 2.742188 -0.730469 2.742188 -0.730469 2.746094 -0.726562 C 2.753906 -0.71875 2.761719 -0.714844 2.773438 -0.710938 C 2.769531 -0.710938 2.769531 -0.710938 2.765625 -0.710938 L 1.5625 -0.710938 C 1.558594 -0.710938 1.558594 -0.710938 1.558594 -0.710938 C 1.5625 -0.710938 1.566406 -0.714844 1.570312 -0.714844 C 1.574219 -0.71875 1.578125 -0.722656 1.578125 -0.726562 L 1.578125 -0.722656 L 1.34375 -0.046875 C 1.324219 0.00390625 1.292969 0.0429688 1.25 0.0703125 C 1.210938 0.09375 1.160156 0.105469 1.105469 0.105469 Z M 0.246094 -0.105469 L 1.105469 -0.105469 C 1.121094 -0.105469 1.128906 -0.109375 1.136719 -0.113281 C 1.140625 -0.113281 1.140625 -0.117188 1.144531 -0.125 L 1.242188 -0.0859375 L 1.144531 -0.121094 L 1.375 -0.789062 L 1.476562 -0.753906 L 1.375 -0.785156 C 1.386719 -0.828125 1.410156 -0.863281 1.445312 -0.886719 C 1.476562 -0.914062 1.515625 -0.925781 1.5625 -0.925781 L 2.765625 -0.925781 C 2.820312 -0.925781 2.863281 -0.910156 2.894531 -0.878906 C 2.914062 -0.859375 2.933594 -0.832031 2.949219 -0.792969 L 2.949219 -0.789062 L 3.175781 -0.128906 L 3.175781 -0.125 C 3.175781 -0.117188 3.179688 -0.109375 3.183594 -0.109375 C 3.183594 -0.105469 3.1875 -0.105469 3.199219 -0.105469 L 4.308594 -0.105469 C 4.300781 -0.105469 4.292969 -0.101562 4.289062 -0.09375 C 4.292969 -0.101562 4.292969 -0.109375 4.292969 -0.125 C 4.292969 -0.132812 4.292969 -0.144531 4.285156 -0.167969 L 4.390625 -0.191406 L 4.289062 -0.15625 L 2.925781 -4.023438 L 3.027344 -4.058594 L 2.929688 -4.019531 C 2.917969 -4.046875 2.898438 -4.070312 2.878906 -4.085938 C 2.863281 -4.101562 2.84375 -4.105469 2.824219 -4.105469 L 1.703125 -4.105469 C 1.6875 -4.105469 1.675781 -4.105469 1.667969 -4.105469 C 1.664062 -4.101562 1.664062 -4.101562 1.660156 -4.101562 C 1.664062 -4.101562 1.664062 -4.101562 1.664062 -4.105469 C 1.65625 -4.097656 1.644531 -4.078125 1.632812 -4.046875 L 1.535156 -4.082031 L 1.632812 -4.046875 L 0.261719 -0.175781 C 0.253906 -0.152344 0.25 -0.132812 0.25 -0.121094 C 0.25 -0.113281 0.25 -0.105469 0.25 -0.101562 C 0.25 -0.105469 0.246094 -0.105469 0.246094 -0.105469 Z M 2.480469 -1.890625 C 2.480469 -1.890625 2.484375 -1.890625 2.484375 -1.890625 C 2.480469 -1.890625 2.480469 -1.890625 2.476562 -1.886719 C 2.46875 -1.886719 2.464844 -1.882812 2.457031 -1.875 C 2.445312 -1.863281 2.4375 -1.851562 2.4375 -1.839844 C 2.433594 -1.847656 2.433594 -1.859375 2.429688 -1.871094 L 2.53125 -1.898438 L 2.433594 -1.863281 L 2.089844 -2.832031 L 2.191406 -2.867188 L 2.09375 -2.828125 C 2.097656 -2.820312 2.101562 -2.8125 2.109375 -2.808594 C 2.125 -2.796875 2.140625 -2.789062 2.15625 -2.789062 C 2.175781 -2.789062 2.191406 -2.796875 2.207031 -2.808594 C 2.214844 -2.8125 2.21875 -2.820312 2.222656 -2.828125 L 2.125 -2.867188 L 2.222656 -2.832031 L 1.875 -1.859375 L 1.871094 -1.855469 L 1.875 -1.855469 C 1.871094 -1.851562 1.871094 -1.851562 1.871094 -1.84375 C 1.871094 -1.855469 1.867188 -1.867188 1.855469 -1.878906 C 1.847656 -1.882812 1.84375 -1.886719 1.835938 -1.890625 C 1.835938 -1.890625 1.832031 -1.890625 1.832031 -1.890625 C 1.832031 -1.890625 1.832031 -1.890625 1.835938 -1.890625 Z M 2.480469 -1.675781 L 1.835938 -1.675781 C 1.785156 -1.675781 1.742188 -1.691406 1.710938 -1.71875 C 1.675781 -1.75 1.660156 -1.792969 1.660156 -1.84375 C 1.660156 -1.886719 1.667969 -1.921875 1.683594 -1.949219 L 1.777344 -1.902344 L 1.675781 -1.9375 L 2.023438 -2.90625 C 2.035156 -2.933594 2.050781 -2.953125 2.070312 -2.972656 C 2.09375 -2.992188 2.125 -3.003906 2.15625 -3.003906 C 2.191406 -3.003906 2.21875 -2.992188 2.246094 -2.972656 C 2.265625 -2.953125 2.28125 -2.933594 2.289062 -2.90625 L 2.292969 -2.90625 L 2.636719 -1.925781 L 2.636719 -1.921875 C 2.644531 -1.882812 2.652344 -1.855469 2.652344 -1.839844 C 2.652344 -1.789062 2.632812 -1.75 2.601562 -1.71875 C 2.570312 -1.691406 2.53125 -1.675781 2.480469 -1.675781 Z M 2.480469 -1.675781 "/></g></g><g style="fill:#ffdf2b;fill-opacity:1;"><g transform="translate(37.709962, 20.197291)"><path style="stroke:none" d="M 4.097656 -2.84375 C 4.097656 -2.550781 4.027344 -2.296875 3.886719 -2.078125 C 3.742188 -1.859375 3.546875 -1.691406 3.289062 -1.574219 C 3.039062 -1.460938 2.753906 -1.402344 2.429688 -1.402344 L 1.652344 -1.402344 C 1.652344 -1.402344 1.652344 -1.40625 1.652344 -1.40625 C 1.660156 -1.40625 1.667969 -1.410156 1.671875 -1.417969 C 1.683594 -1.425781 1.691406 -1.4375 1.691406 -1.449219 L 1.691406 -0.164062 C 1.691406 -0.0703125 1.664062 0 1.605469 0.046875 C 1.554688 0.0859375 1.488281 0.105469 1.398438 0.105469 L 0.441406 0.105469 C 0.355469 0.105469 0.289062 0.0820312 0.246094 0.0390625 C 0.207031 -0.00390625 0.1875 -0.0664062 0.1875 -0.140625 L 0.1875 -4.082031 C 0.1875 -4.152344 0.207031 -4.207031 0.238281 -4.25 C 0.28125 -4.296875 0.332031 -4.320312 0.402344 -4.320312 L 2.28125 -4.320312 C 2.613281 -4.320312 2.917969 -4.265625 3.1875 -4.15625 C 3.464844 -4.042969 3.6875 -3.878906 3.851562 -3.65625 C 4.015625 -3.433594 4.097656 -3.164062 4.097656 -2.84375 Z M 3.886719 -2.84375 C 3.886719 -3.117188 3.816406 -3.347656 3.679688 -3.53125 C 3.539062 -3.71875 3.351562 -3.863281 3.109375 -3.957031 C 2.863281 -4.058594 2.585938 -4.105469 2.28125 -4.105469 L 0.402344 -4.105469 C 0.398438 -4.105469 0.398438 -4.105469 0.394531 -4.105469 C 0.398438 -4.109375 0.402344 -4.109375 0.40625 -4.113281 C 0.402344 -4.105469 0.402344 -4.09375 0.402344 -4.082031 L 0.402344 -0.140625 C 0.402344 -0.128906 0.402344 -0.117188 0.40625 -0.109375 C 0.40625 -0.105469 0.40625 -0.105469 0.40625 -0.105469 C 0.402344 -0.109375 0.402344 -0.109375 0.398438 -0.113281 C 0.398438 -0.113281 0.398438 -0.109375 0.402344 -0.109375 C 0.410156 -0.109375 0.425781 -0.105469 0.441406 -0.105469 L 1.398438 -0.105469 C 1.4375 -0.105469 1.460938 -0.109375 1.472656 -0.121094 C 1.472656 -0.117188 1.472656 -0.117188 1.46875 -0.117188 C 1.472656 -0.121094 1.472656 -0.121094 1.472656 -0.121094 C 1.476562 -0.132812 1.476562 -0.148438 1.476562 -0.164062 L 1.476562 -1.449219 C 1.476562 -1.5 1.496094 -1.542969 1.53125 -1.574219 C 1.5625 -1.601562 1.601562 -1.617188 1.652344 -1.617188 L 2.429688 -1.617188 C 2.722656 -1.617188 2.980469 -1.667969 3.203125 -1.769531 C 3.417969 -1.867188 3.585938 -2.011719 3.707031 -2.195312 C 3.828125 -2.375 3.886719 -2.59375 3.886719 -2.84375 Z M 2.566406 -2.863281 C 2.566406 -2.964844 2.535156 -3.042969 2.46875 -3.105469 C 2.398438 -3.167969 2.308594 -3.199219 2.203125 -3.199219 L 1.714844 -3.199219 C 1.699219 -3.199219 1.6875 -3.199219 1.679688 -3.195312 C 1.683594 -3.195312 1.683594 -3.199219 1.6875 -3.203125 C 1.691406 -3.203125 1.691406 -3.207031 1.691406 -3.207031 C 1.691406 -3.203125 1.691406 -3.195312 1.691406 -3.1875 L 1.691406 -2.542969 C 1.691406 -2.53125 1.691406 -2.519531 1.695312 -2.511719 C 1.695312 -2.507812 1.695312 -2.507812 1.695312 -2.507812 C 1.695312 -2.507812 1.691406 -2.511719 1.691406 -2.515625 C 1.6875 -2.519531 1.679688 -2.523438 1.675781 -2.527344 C 1.675781 -2.527344 1.679688 -2.527344 1.679688 -2.527344 L 2.238281 -2.527344 C 2.339844 -2.527344 2.417969 -2.558594 2.476562 -2.621094 C 2.539062 -2.683594 2.566406 -2.765625 2.566406 -2.863281 Z M 2.78125 -2.863281 C 2.78125 -2.710938 2.730469 -2.578125 2.632812 -2.472656 C 2.53125 -2.367188 2.402344 -2.3125 2.238281 -2.3125 L 1.679688 -2.3125 C 1.613281 -2.3125 1.558594 -2.335938 1.523438 -2.382812 C 1.492188 -2.417969 1.476562 -2.472656 1.476562 -2.542969 L 1.476562 -3.1875 C 1.476562 -3.257812 1.496094 -3.3125 1.539062 -3.351562 C 1.578125 -3.390625 1.636719 -3.410156 1.714844 -3.410156 L 2.203125 -3.410156 C 2.363281 -3.410156 2.5 -3.363281 2.609375 -3.261719 C 2.722656 -3.160156 2.78125 -3.027344 2.78125 -2.863281 Z M 2.78125 -2.863281 "/></g></g><g style="fill:#ffdf2b;fill-opacity:1;"><g transform="translate(41.861169, 20.197291)"><path style="stroke:none" d="M 0.246094 0.105469 C 0.183594 0.105469 0.132812 0.0859375 0.0898438 0.0390625 C 0.0546875 0 0.0351562 -0.0546875 0.0351562 -0.121094 C 0.0351562 -0.15625 0.0429688 -0.199219 0.0585938 -0.242188 L 1.433594 -4.121094 C 1.460938 -4.1875 1.492188 -4.238281 1.527344 -4.265625 C 1.570312 -4.300781 1.628906 -4.320312 1.703125 -4.320312 L 2.824219 -4.320312 C 2.890625 -4.320312 2.957031 -4.296875 3.011719 -4.253906 C 3.0625 -4.214844 3.097656 -4.164062 3.125 -4.101562 L 3.125 -4.097656 L 4.492188 -0.222656 L 4.492188 -0.21875 C 4.503906 -0.179688 4.507812 -0.148438 4.507812 -0.125 C 4.507812 -0.0703125 4.496094 -0.0234375 4.46875 0.0195312 C 4.433594 0.078125 4.378906 0.105469 4.308594 0.105469 L 3.199219 0.105469 C 3.140625 0.105469 3.09375 0.0898438 3.050781 0.0585938 C 3.011719 0.03125 2.984375 -0.0117188 2.96875 -0.0664062 L 3.074219 -0.0976562 L 2.972656 -0.0625 L 2.75 -0.714844 L 2.851562 -0.75 L 2.753906 -0.707031 C 2.75 -0.71875 2.746094 -0.722656 2.742188 -0.730469 C 2.742188 -0.730469 2.742188 -0.730469 2.742188 -0.734375 C 2.742188 -0.730469 2.742188 -0.730469 2.746094 -0.726562 C 2.753906 -0.71875 2.761719 -0.714844 2.773438 -0.710938 C 2.769531 -0.710938 2.769531 -0.710938 2.765625 -0.710938 L 1.5625 -0.710938 C 1.558594 -0.710938 1.558594 -0.710938 1.558594 -0.710938 C 1.5625 -0.710938 1.566406 -0.714844 1.570312 -0.714844 C 1.574219 -0.71875 1.578125 -0.722656 1.578125 -0.726562 L 1.578125 -0.722656 L 1.34375 -0.046875 C 1.324219 0.00390625 1.292969 0.0429688 1.25 0.0703125 C 1.210938 0.09375 1.160156 0.105469 1.105469 0.105469 Z M 0.246094 -0.105469 L 1.105469 -0.105469 C 1.121094 -0.105469 1.128906 -0.109375 1.136719 -0.113281 C 1.140625 -0.113281 1.140625 -0.117188 1.144531 -0.125 L 1.242188 -0.0859375 L 1.144531 -0.121094 L 1.375 -0.789062 L 1.476562 -0.753906 L 1.375 -0.785156 C 1.386719 -0.828125 1.410156 -0.863281 1.445312 -0.886719 C 1.476562 -0.914062 1.515625 -0.925781 1.5625 -0.925781 L 2.765625 -0.925781 C 2.820312 -0.925781 2.863281 -0.910156 2.894531 -0.878906 C 2.914062 -0.859375 2.933594 -0.832031 2.949219 -0.792969 L 2.949219 -0.789062 L 3.175781 -0.128906 L 3.175781 -0.125 C 3.175781 -0.117188 3.179688 -0.109375 3.183594 -0.109375 C 3.183594 -0.105469 3.1875 -0.105469 3.199219 -0.105469 L 4.308594 -0.105469 C 4.300781 -0.105469 4.292969 -0.101562 4.289062 -0.09375 C 4.292969 -0.101562 4.292969 -0.109375 4.292969 -0.125 C 4.292969 -0.132812 4.292969 -0.144531 4.285156 -0.167969 L 4.390625 -0.191406 L 4.289062 -0.15625 L 2.925781 -4.023438 L 3.027344 -4.058594 L 2.929688 -4.019531 C 2.917969 -4.046875 2.898438 -4.070312 2.878906 -4.085938 C 2.863281 -4.101562 2.84375 -4.105469 2.824219 -4.105469 L 1.703125 -4.105469 C 1.6875 -4.105469 1.675781 -4.105469 1.667969 -4.105469 C 1.664062 -4.101562 1.664062 -4.101562 1.660156 -4.101562 C 1.664062 -4.101562 1.664062 -4.101562 1.664062 -4.105469 C 1.65625 -4.097656 1.644531 -4.078125 1.632812 -4.046875 L 1.535156 -4.082031 L 1.632812 -4.046875 L 0.261719 -0.175781 C 0.253906 -0.152344 0.25 -0.132812 0.25 -0.121094 C 0.25 -0.113281 0.25 -0.105469 0.25 -0.101562 C 0.25 -0.105469 0.246094 -0.105469 0.246094 -0.105469 Z M 2.480469 -1.890625 C 2.480469 -1.890625 2.484375 -1.890625 2.484375 -1.890625 C 2.480469 -1.890625 2.480469 -1.890625 2.476562 -1.886719 C 2.46875 -1.886719 2.464844 -1.882812 2.457031 -1.875 C 2.445312 -1.863281 2.4375 -1.851562 2.4375 -1.839844 C 2.433594 -1.847656 2.433594 -1.859375 2.429688 -1.871094 L 2.53125 -1.898438 L 2.433594 -1.863281 L 2.089844 -2.832031 L 2.191406 -2.867188 L 2.09375 -2.828125 C 2.097656 -2.820312 2.101562 -2.8125 2.109375 -2.808594 C 2.125 -2.796875 2.140625 -2.789062 2.15625 -2.789062 C 2.175781 -2.789062 2.191406 -2.796875 2.207031 -2.808594 C 2.214844 -2.8125 2.21875 -2.820312 2.222656 -2.828125 L 2.125 -2.867188 L 2.222656 -2.832031 L 1.875 -1.859375 L 1.871094 -1.855469 L 1.875 -1.855469 C 1.871094 -1.851562 1.871094 -1.851562 1.871094 -1.84375 C 1.871094 -1.855469 1.867188 -1.867188 1.855469 -1.878906 C 1.847656 -1.882812 1.84375 -1.886719 1.835938 -1.890625 C 1.835938 -1.890625 1.832031 -1.890625 1.832031 -1.890625 C 1.832031 -1.890625 1.832031 -1.890625 1.835938 -1.890625 Z M 2.480469 -1.675781 L 1.835938 -1.675781 C 1.785156 -1.675781 1.742188 -1.691406 1.710938 -1.71875 C 1.675781 -1.75 1.660156 -1.792969 1.660156 -1.84375 C 1.660156 -1.886719 1.667969 -1.921875 1.683594 -1.949219 L 1.777344 -1.902344 L 1.675781 -1.9375 L 2.023438 -2.90625 C 2.035156 -2.933594 2.050781 -2.953125 2.070312 -2.972656 C 2.09375 -2.992188 2.125 -3.003906 2.15625 -3.003906 C 2.191406 -3.003906 2.21875 -2.992188 2.246094 -2.972656 C 2.265625 -2.953125 2.28125 -2.933594 2.289062 -2.90625 L 2.292969 -2.90625 L 2.636719 -1.925781 L 2.636719 -1.921875 C 2.644531 -1.882812 2.652344 -1.855469 2.652344 -1.839844 C 2.652344 -1.789062 2.632812 -1.75 2.601562 -1.71875 C 2.570312 -1.691406 2.53125 -1.675781 2.480469 -1.675781 Z M 2.480469 -1.675781 "/></g></g><g style="fill:#ffdf2b;fill-opacity:1;"><g transform="translate(46.398536, 20.197291)"><path style="stroke:none" d="M 4.078125 -0.230469 C 4.089844 -0.199219 4.097656 -0.164062 4.097656 -0.121094 C 4.097656 -0.0585938 4.078125 -0.00390625 4.039062 0.0390625 C 3.996094 0.0820312 3.945312 0.105469 3.878906 0.105469 L 2.777344 0.105469 C 2.714844 0.105469 2.660156 0.0898438 2.613281 0.0546875 C 2.570312 0.0195312 2.539062 -0.0273438 2.519531 -0.0898438 L 2.625 -0.121094 L 2.523438 -0.0820312 L 1.988281 -1.546875 C 1.988281 -1.554688 1.984375 -1.558594 1.980469 -1.558594 C 1.96875 -1.566406 1.949219 -1.570312 1.914062 -1.570312 L 1.652344 -1.570312 C 1.664062 -1.570312 1.675781 -1.574219 1.6875 -1.589844 C 1.691406 -1.597656 1.691406 -1.605469 1.691406 -1.613281 L 1.691406 -0.164062 C 1.691406 -0.0703125 1.664062 0 1.605469 0.046875 C 1.554688 0.0859375 1.488281 0.105469 1.398438 0.105469 L 0.441406 0.105469 C 0.355469 0.105469 0.289062 0.0820312 0.246094 0.0390625 C 0.207031 -0.00390625 0.1875 -0.0664062 0.1875 -0.140625 L 0.1875 -4.082031 C 0.1875 -4.152344 0.207031 -4.207031 0.238281 -4.25 C 0.28125 -4.296875 0.332031 -4.320312 0.402344 -4.320312 L 2.300781 -4.320312 C 2.871094 -4.320312 3.316406 -4.207031 3.636719 -3.984375 C 3.972656 -3.753906 4.136719 -3.429688 4.136719 -3.011719 C 4.136719 -2.726562 4.0625 -2.472656 3.914062 -2.25 C 3.761719 -2.027344 3.566406 -1.871094 3.324219 -1.78125 L 3.289062 -1.878906 L 3.335938 -1.785156 C 3.34375 -1.789062 3.347656 -1.792969 3.355469 -1.800781 C 3.359375 -1.808594 3.359375 -1.816406 3.359375 -1.824219 C 3.359375 -1.824219 3.359375 -1.828125 3.359375 -1.828125 C 3.359375 -1.828125 3.359375 -1.824219 3.359375 -1.824219 C 3.363281 -1.820312 3.363281 -1.8125 3.367188 -1.804688 L 3.265625 -1.773438 L 3.363281 -1.816406 L 4.078125 -0.226562 L 3.980469 -0.183594 Z M 3.882812 -0.136719 L 3.167969 -1.734375 L 3.164062 -1.738281 C 3.152344 -1.773438 3.148438 -1.800781 3.148438 -1.824219 C 3.148438 -1.894531 3.179688 -1.945312 3.242188 -1.976562 L 3.246094 -1.976562 L 3.25 -1.980469 C 3.449219 -2.054688 3.609375 -2.183594 3.738281 -2.371094 C 3.863281 -2.558594 3.925781 -2.769531 3.925781 -3.011719 C 3.925781 -3.355469 3.789062 -3.621094 3.515625 -3.8125 C 3.234375 -4.007812 2.828125 -4.105469 2.300781 -4.105469 L 0.402344 -4.105469 C 0.398438 -4.105469 0.398438 -4.105469 0.394531 -4.105469 C 0.398438 -4.109375 0.402344 -4.109375 0.40625 -4.113281 C 0.402344 -4.105469 0.402344 -4.09375 0.402344 -4.082031 L 0.402344 -0.140625 C 0.402344 -0.128906 0.402344 -0.117188 0.40625 -0.109375 C 0.40625 -0.105469 0.40625 -0.105469 0.40625 -0.105469 C 0.402344 -0.109375 0.402344 -0.109375 0.398438 -0.113281 C 0.398438 -0.113281 0.398438 -0.109375 0.402344 -0.109375 C 0.410156 -0.109375 0.425781 -0.105469 0.441406 -0.105469 L 1.398438 -0.105469 C 1.4375 -0.105469 1.460938 -0.109375 1.472656 -0.121094 C 1.472656 -0.117188 1.472656 -0.117188 1.46875 -0.117188 C 1.472656 -0.121094 1.472656 -0.121094 1.472656 -0.121094 C 1.476562 -0.132812 1.476562 -0.148438 1.476562 -0.164062 L 1.476562 -1.613281 C 1.476562 -1.648438 1.492188 -1.683594 1.515625 -1.714844 C 1.550781 -1.761719 1.59375 -1.78125 1.652344 -1.78125 L 1.914062 -1.78125 C 1.984375 -1.78125 2.042969 -1.769531 2.085938 -1.746094 C 2.132812 -1.71875 2.167969 -1.675781 2.191406 -1.621094 L 2.726562 -0.152344 L 2.726562 -0.148438 C 2.730469 -0.132812 2.738281 -0.121094 2.746094 -0.113281 C 2.75 -0.109375 2.761719 -0.105469 2.777344 -0.105469 L 3.878906 -0.105469 C 3.882812 -0.105469 3.882812 -0.105469 3.882812 -0.105469 C 3.882812 -0.109375 3.886719 -0.113281 3.886719 -0.121094 C 3.886719 -0.125 3.886719 -0.132812 3.882812 -0.136719 C 3.882812 -0.136719 3.886719 -0.136719 3.886719 -0.132812 Z M 2.25 -2.628906 C 2.363281 -2.628906 2.449219 -2.65625 2.507812 -2.710938 C 2.5625 -2.761719 2.589844 -2.835938 2.589844 -2.929688 C 2.589844 -3.039062 2.558594 -3.117188 2.488281 -3.175781 C 2.417969 -3.234375 2.324219 -3.265625 2.214844 -3.265625 L 1.714844 -3.265625 C 1.699219 -3.265625 1.6875 -3.265625 1.679688 -3.261719 C 1.675781 -3.261719 1.675781 -3.261719 1.675781 -3.261719 C 1.679688 -3.265625 1.679688 -3.265625 1.683594 -3.269531 C 1.6875 -3.273438 1.691406 -3.277344 1.691406 -3.28125 C 1.691406 -3.277344 1.691406 -3.269531 1.691406 -3.257812 L 1.691406 -2.640625 C 1.691406 -2.628906 1.691406 -2.617188 1.695312 -2.609375 C 1.695312 -2.609375 1.695312 -2.605469 1.695312 -2.605469 C 1.695312 -2.605469 1.691406 -2.609375 1.691406 -2.609375 C 1.683594 -2.621094 1.679688 -2.625 1.671875 -2.628906 C 1.671875 -2.628906 1.675781 -2.628906 1.679688 -2.628906 Z M 2.25 -2.414062 L 1.679688 -2.414062 C 1.605469 -2.414062 1.550781 -2.441406 1.515625 -2.488281 C 1.492188 -2.527344 1.476562 -2.578125 1.476562 -2.640625 L 1.476562 -3.257812 C 1.476562 -3.332031 1.5 -3.390625 1.542969 -3.425781 C 1.582031 -3.460938 1.636719 -3.480469 1.714844 -3.480469 L 2.214844 -3.480469 C 2.375 -3.480469 2.515625 -3.433594 2.625 -3.339844 C 2.746094 -3.238281 2.804688 -3.105469 2.804688 -2.929688 C 2.804688 -2.773438 2.753906 -2.648438 2.65625 -2.554688 C 2.554688 -2.460938 2.421875 -2.414062 2.25 -2.414062 Z M 2.25 -2.414062 "/></g></g><g style="fill:#ffdf2b;fill-opacity:1;"><g transform="translate(50.595172, 20.197291)"><path style="stroke:none" d="M 0.246094 0.105469 C 0.183594 0.105469 0.132812 0.0859375 0.0898438 0.0390625 C 0.0546875 0 0.0351562 -0.0546875 0.0351562 -0.121094 C 0.0351562 -0.15625 0.0429688 -0.199219 0.0585938 -0.242188 L 1.433594 -4.121094 C 1.460938 -4.1875 1.492188 -4.238281 1.527344 -4.265625 C 1.570312 -4.300781 1.628906 -4.320312 1.703125 -4.320312 L 2.824219 -4.320312 C 2.890625 -4.320312 2.957031 -4.296875 3.011719 -4.253906 C 3.0625 -4.214844 3.097656 -4.164062 3.125 -4.101562 L 3.125 -4.097656 L 4.492188 -0.222656 L 4.492188 -0.21875 C 4.503906 -0.179688 4.507812 -0.148438 4.507812 -0.125 C 4.507812 -0.0703125 4.496094 -0.0234375 4.46875 0.0195312 C 4.433594 0.078125 4.378906 0.105469 4.308594 0.105469 L 3.199219 0.105469 C 3.140625 0.105469 3.09375 0.0898438 3.050781 0.0585938 C 3.011719 0.03125 2.984375 -0.0117188 2.96875 -0.0664062 L 3.074219 -0.0976562 L 2.972656 -0.0625 L 2.75 -0.714844 L 2.851562 -0.75 L 2.753906 -0.707031 C 2.75 -0.71875 2.746094 -0.722656 2.742188 -0.730469 C 2.742188 -0.730469 2.742188 -0.730469 2.742188 -0.734375 C 2.742188 -0.730469 2.742188 -0.730469 2.746094 -0.726562 C 2.753906 -0.71875 2.761719 -0.714844 2.773438 -0.710938 C 2.769531 -0.710938 2.769531 -0.710938 2.765625 -0.710938 L 1.5625 -0.710938 C 1.558594 -0.710938 1.558594 -0.710938 1.558594 -0.710938 C 1.5625 -0.710938 1.566406 -0.714844 1.570312 -0.714844 C 1.574219 -0.71875 1.578125 -0.722656 1.578125 -0.726562 L 1.578125 -0.722656 L 1.34375 -0.046875 C 1.324219 0.00390625 1.292969 0.0429688 1.25 0.0703125 C 1.210938 0.09375 1.160156 0.105469 1.105469 0.105469 Z M 0.246094 -0.105469 L 1.105469 -0.105469 C 1.121094 -0.105469 1.128906 -0.109375 1.136719 -0.113281 C 1.140625 -0.113281 1.140625 -0.117188 1.144531 -0.125 L 1.242188 -0.0859375 L 1.144531 -0.121094 L 1.375 -0.789062 L 1.476562 -0.753906 L 1.375 -0.785156 C 1.386719 -0.828125 1.410156 -0.863281 1.445312 -0.886719 C 1.476562 -0.914062 1.515625 -0.925781 1.5625 -0.925781 L 2.765625 -0.925781 C 2.820312 -0.925781 2.863281 -0.910156 2.894531 -0.878906 C 2.914062 -0.859375 2.933594 -0.832031 2.949219 -0.792969 L 2.949219 -0.789062 L 3.175781 -0.128906 L 3.175781 -0.125 C 3.175781 -0.117188 3.179688 -0.109375 3.183594 -0.109375 C 3.183594 -0.105469 3.1875 -0.105469 3.199219 -0.105469 L 4.308594 -0.105469 C 4.300781 -0.105469 4.292969 -0.101562 4.289062 -0.09375 C 4.292969 -0.101562 4.292969 -0.109375 4.292969 -0.125 C 4.292969 -0.132812 4.292969 -0.144531 4.285156 -0.167969 L 4.390625 -0.191406 L 4.289062 -0.15625 L 2.925781 -4.023438 L 3.027344 -4.058594 L 2.929688 -4.019531 C 2.917969 -4.046875 2.898438 -4.070312 2.878906 -4.085938 C 2.863281 -4.101562 2.84375 -4.105469 2.824219 -4.105469 L 1.703125 -4.105469 C 1.6875 -4.105469 1.675781 -4.105469 1.667969 -4.105469 C 1.664062 -4.101562 1.664062 -4.101562 1.660156 -4.101562 C 1.664062 -4.101562 1.664062 -4.101562 1.664062 -4.105469 C 1.65625 -4.097656 1.644531 -4.078125 1.632812 -4.046875 L 1.535156 -4.082031 L 1.632812 -4.046875 L 0.261719 -0.175781 C 0.253906 -0.152344 0.25 -0.132812 0.25 -0.121094 C 0.25 -0.113281 0.25 -0.105469 0.25 -0.101562 C 0.25 -0.105469 0.246094 -0.105469 0.246094 -0.105469 Z M 2.480469 -1.890625 C 2.480469 -1.890625 2.484375 -1.890625 2.484375 -1.890625 C 2.480469 -1.890625 2.480469 -1.890625 2.476562 -1.886719 C 2.46875 -1.886719 2.464844 -1.882812 2.457031 -1.875 C 2.445312 -1.863281 2.4375 -1.851562 2.4375 -1.839844 C 2.433594 -1.847656 2.433594 -1.859375 2.429688 -1.871094 L 2.53125 -1.898438 L 2.433594 -1.863281 L 2.089844 -2.832031 L 2.191406 -2.867188 L 2.09375 -2.828125 C 2.097656 -2.820312 2.101562 -2.8125 2.109375 -2.808594 C 2.125 -2.796875 2.140625 -2.789062 2.15625 -2.789062 C 2.175781 -2.789062 2.191406 -2.796875 2.207031 -2.808594 C 2.214844 -2.8125 2.21875 -2.820312 2.222656 -2.828125 L 2.125 -2.867188 L 2.222656 -2.832031 L 1.875 -1.859375 L 1.871094 -1.855469 L 1.875 -1.855469 C 1.871094 -1.851562 1.871094 -1.851562 1.871094 -1.84375 C 1.871094 -1.855469 1.867188 -1.867188 1.855469 -1.878906 C 1.847656 -1.882812 1.84375 -1.886719 1.835938 -1.890625 C 1.835938 -1.890625 1.832031 -1.890625 1.832031 -1.890625 C 1.832031 -1.890625 1.832031 -1.890625 1.835938 -1.890625 Z M 2.480469 -1.675781 L 1.835938 -1.675781 C 1.785156 -1.675781 1.742188 -1.691406 1.710938 -1.71875 C 1.675781 -1.75 1.660156 -1.792969 1.660156 -1.84375 C 1.660156 -1.886719 1.667969 -1.921875 1.683594 -1.949219 L 1.777344 -1.902344 L 1.675781 -1.9375 L 2.023438 -2.90625 C 2.035156 -2.933594 2.050781 -2.953125 2.070312 -2.972656 C 2.09375 -2.992188 2.125 -3.003906 2.15625 -3.003906 C 2.191406 -3.003906 2.21875 -2.992188 2.246094 -2.972656 C 2.265625 -2.953125 2.28125 -2.933594 2.289062 -2.90625 L 2.292969 -2.90625 L 2.636719 -1.925781 L 2.636719 -1.921875 C 2.644531 -1.882812 2.652344 -1.855469 2.652344 -1.839844 C 2.652344 -1.789062 2.632812 -1.75 2.601562 -1.71875 C 2.570312 -1.691406 2.53125 -1.675781 2.480469 -1.675781 Z M 2.480469 -1.675781 "/></g></g><g style="fill:#ffdf2b;fill-opacity:1;"><g transform="translate(55.132539, 20.197291)"><path style="stroke:none" d="M 0.441406 0.105469 C 0.367188 0.105469 0.304688 0.0820312 0.257812 0.03125 C 0.210938 -0.0195312 0.1875 -0.0820312 0.1875 -0.160156 L 0.1875 -4.082031 C 0.1875 -4.15625 0.207031 -4.214844 0.246094 -4.253906 C 0.285156 -4.296875 0.339844 -4.320312 0.414062 -4.320312 L 2.003906 -4.320312 C 2.074219 -4.320312 2.128906 -4.308594 2.167969 -4.285156 C 2.207031 -4.257812 2.242188 -4.210938 2.265625 -4.148438 L 2.265625 -4.144531 L 2.855469 -2.339844 L 2.753906 -2.304688 L 2.855469 -2.34375 C 2.855469 -2.339844 2.855469 -2.335938 2.855469 -2.335938 C 2.855469 -2.335938 2.855469 -2.339844 2.851562 -2.339844 C 2.839844 -2.359375 2.820312 -2.367188 2.792969 -2.367188 C 2.765625 -2.367188 2.742188 -2.355469 2.726562 -2.335938 C 2.726562 -2.335938 2.722656 -2.332031 2.722656 -2.332031 C 2.726562 -2.335938 2.726562 -2.339844 2.726562 -2.34375 L 2.828125 -2.304688 L 2.726562 -2.335938 L 3.253906 -4.078125 L 3.355469 -4.050781 L 3.253906 -4.078125 C 3.273438 -4.148438 3.300781 -4.203125 3.339844 -4.246094 C 3.386719 -4.296875 3.441406 -4.320312 3.507812 -4.320312 L 5.152344 -4.320312 C 5.21875 -4.320312 5.269531 -4.296875 5.308594 -4.253906 C 5.34375 -4.214844 5.359375 -4.160156 5.359375 -4.09375 L 5.359375 -0.164062 C 5.359375 -0.0703125 5.332031 -0.00390625 5.28125 0.0429688 C 5.230469 0.0859375 5.164062 0.105469 5.070312 0.105469 L 4.113281 0.105469 C 4.023438 0.105469 3.957031 0.0820312 3.917969 0.0390625 C 3.878906 -0.00390625 3.859375 -0.0664062 3.859375 -0.140625 L 3.859375 -2.691406 C 3.859375 -2.691406 3.859375 -2.695312 3.855469 -2.695312 C 3.855469 -2.695312 3.855469 -2.695312 3.859375 -2.695312 C 3.859375 -2.6875 3.859375 -2.683594 3.863281 -2.679688 C 3.871094 -2.664062 3.878906 -2.65625 3.890625 -2.644531 C 3.90625 -2.636719 3.921875 -2.628906 3.941406 -2.628906 C 3.964844 -2.628906 3.980469 -2.636719 3.996094 -2.652344 C 3.996094 -2.65625 4 -2.65625 4 -2.660156 C 4 -2.65625 3.996094 -2.65625 3.996094 -2.652344 L 3.179688 -0.0664062 L 3.175781 -0.0625 C 3.15625 -0.0117188 3.125 0.03125 3.089844 0.0585938 C 3.046875 0.0898438 2.996094 0.105469 2.941406 0.105469 L 2.34375 0.105469 C 2.289062 0.105469 2.238281 0.0898438 2.195312 0.0585938 C 2.15625 0.0273438 2.125 -0.0117188 2.109375 -0.0703125 L 1.289062 -2.609375 C 1.289062 -2.613281 1.285156 -2.621094 1.285156 -2.625 L 1.285156 -2.621094 C 1.300781 -2.601562 1.320312 -2.589844 1.351562 -2.589844 C 1.371094 -2.589844 1.386719 -2.597656 1.402344 -2.609375 C 1.414062 -2.617188 1.421875 -2.625 1.425781 -2.636719 C 1.429688 -2.640625 1.429688 -2.644531 1.429688 -2.644531 C 1.429688 -2.644531 1.429688 -2.640625 1.429688 -2.636719 L 1.429688 -0.125 C 1.429688 -0.046875 1.414062 0.0078125 1.378906 0.046875 C 1.34375 0.0859375 1.28125 0.105469 1.199219 0.105469 Z M 0.441406 -0.105469 L 1.199219 -0.105469 C 1.214844 -0.105469 1.230469 -0.109375 1.238281 -0.109375 C 1.230469 -0.105469 1.226562 -0.101562 1.222656 -0.0976562 C 1.21875 -0.09375 1.214844 -0.0898438 1.214844 -0.0859375 C 1.214844 -0.09375 1.214844 -0.109375 1.214844 -0.125 L 1.214844 -2.636719 C 1.214844 -2.671875 1.222656 -2.703125 1.234375 -2.726562 C 1.242188 -2.75 1.257812 -2.765625 1.277344 -2.78125 C 1.296875 -2.796875 1.324219 -2.804688 1.351562 -2.804688 C 1.417969 -2.804688 1.464844 -2.761719 1.492188 -2.671875 L 2.308594 -0.136719 C 2.316406 -0.121094 2.320312 -0.113281 2.324219 -0.109375 C 2.328125 -0.109375 2.335938 -0.105469 2.34375 -0.105469 L 2.941406 -0.105469 C 2.949219 -0.105469 2.957031 -0.109375 2.960938 -0.109375 C 2.964844 -0.117188 2.972656 -0.125 2.980469 -0.140625 L 3.078125 -0.101562 L 2.976562 -0.132812 L 3.792969 -2.71875 C 3.804688 -2.75 3.820312 -2.777344 3.835938 -2.796875 C 3.863281 -2.828125 3.898438 -2.84375 3.941406 -2.84375 C 3.964844 -2.84375 3.988281 -2.835938 4.011719 -2.824219 C 4.027344 -2.8125 4.042969 -2.792969 4.054688 -2.773438 C 4.066406 -2.75 4.070312 -2.722656 4.070312 -2.691406 L 4.070312 -0.140625 C 4.070312 -0.128906 4.070312 -0.117188 4.074219 -0.109375 C 4.074219 -0.105469 4.074219 -0.105469 4.074219 -0.105469 C 4.070312 -0.109375 4.070312 -0.109375 4.066406 -0.113281 C 4.066406 -0.113281 4.066406 -0.109375 4.070312 -0.109375 C 4.078125 -0.109375 4.09375 -0.105469 4.113281 -0.105469 L 5.070312 -0.105469 C 5.109375 -0.105469 5.132812 -0.109375 5.140625 -0.117188 C 5.140625 -0.117188 5.140625 -0.117188 5.140625 -0.121094 C 5.144531 -0.132812 5.148438 -0.144531 5.148438 -0.164062 L 5.148438 -4.09375 C 5.148438 -4.105469 5.144531 -4.113281 5.144531 -4.117188 C 5.144531 -4.117188 5.144531 -4.117188 5.148438 -4.113281 C 5.148438 -4.109375 5.152344 -4.109375 5.15625 -4.105469 C 5.15625 -4.105469 5.152344 -4.105469 5.152344 -4.105469 L 3.507812 -4.105469 C 3.492188 -4.105469 3.476562 -4.078125 3.457031 -4.019531 L 2.929688 -2.273438 L 2.929688 -2.269531 C 2.898438 -2.191406 2.855469 -2.152344 2.792969 -2.152344 C 2.730469 -2.152344 2.683594 -2.191406 2.65625 -2.269531 L 2.652344 -2.269531 L 2.0625 -4.078125 L 2.164062 -4.113281 L 2.0625 -4.074219 C 2.058594 -4.089844 2.054688 -4.097656 2.050781 -4.105469 C 2.046875 -4.105469 2.046875 -4.109375 2.046875 -4.109375 C 2.050781 -4.105469 2.050781 -4.105469 2.050781 -4.105469 C 2.054688 -4.101562 2.054688 -4.101562 2.054688 -4.101562 C 2.054688 -4.101562 2.050781 -4.105469 2.046875 -4.105469 C 2.035156 -4.105469 2.023438 -4.105469 2.003906 -4.105469 L 0.414062 -4.105469 C 0.40625 -4.105469 0.398438 -4.105469 0.394531 -4.105469 C 0.398438 -4.105469 0.398438 -4.109375 0.402344 -4.109375 C 0.402344 -4.113281 0.40625 -4.113281 0.40625 -4.113281 C 0.402344 -4.105469 0.402344 -4.097656 0.402344 -4.082031 L 0.402344 -0.160156 C 0.402344 -0.136719 0.40625 -0.125 0.414062 -0.117188 C 0.417969 -0.109375 0.429688 -0.105469 0.441406 -0.105469 Z M 0.441406 -0.105469 "/></g></g><g style="fill:#ffdf2b;fill-opacity:1;"><g transform="translate(60.680727, 20.197291)"><path style="stroke:none" d="M 0.425781 0.105469 C 0.359375 0.105469 0.300781 0.0820312 0.257812 0.0390625 C 0.210938 -0.0078125 0.1875 -0.0625 0.1875 -0.125 L 0.1875 -4.066406 C 0.1875 -4.136719 0.210938 -4.195312 0.257812 -4.242188 C 0.304688 -4.292969 0.363281 -4.320312 0.4375 -4.320312 L 2.128906 -4.320312 C 2.742188 -4.320312 3.207031 -4.222656 3.527344 -4.023438 C 3.867188 -3.816406 4.035156 -3.507812 4.035156 -3.101562 C 4.035156 -2.875 3.972656 -2.683594 3.847656 -2.527344 C 3.726562 -2.375 3.523438 -2.230469 3.230469 -2.09375 L 3.1875 -2.191406 L 3.234375 -2.097656 C 3.25 -2.105469 3.261719 -2.117188 3.269531 -2.132812 C 3.277344 -2.144531 3.28125 -2.15625 3.28125 -2.171875 C 3.28125 -2.1875 3.277344 -2.199219 3.269531 -2.214844 C 3.261719 -2.226562 3.25 -2.238281 3.234375 -2.246094 L 3.1875 -2.152344 L 3.222656 -2.253906 C 3.546875 -2.132812 3.78125 -1.988281 3.921875 -1.816406 C 4.066406 -1.640625 4.136719 -1.417969 4.136719 -1.148438 C 4.136719 -0.71875 3.972656 -0.398438 3.644531 -0.191406 C 3.328125 0.0078125 2.855469 0.105469 2.21875 0.105469 Z M 0.425781 -0.105469 L 2.21875 -0.105469 C 2.8125 -0.105469 3.25 -0.195312 3.53125 -0.371094 C 3.792969 -0.539062 3.925781 -0.796875 3.925781 -1.148438 C 3.925781 -1.367188 3.871094 -1.546875 3.757812 -1.679688 C 3.640625 -1.820312 3.4375 -1.945312 3.148438 -2.050781 L 3.144531 -2.054688 L 3.136719 -2.058594 C 3.117188 -2.070312 3.097656 -2.085938 3.085938 -2.105469 C 3.074219 -2.128906 3.066406 -2.148438 3.066406 -2.171875 C 3.066406 -2.195312 3.074219 -2.21875 3.085938 -2.238281 C 3.097656 -2.257812 3.117188 -2.277344 3.136719 -2.289062 L 3.140625 -2.289062 C 3.402344 -2.410156 3.582031 -2.535156 3.683594 -2.660156 C 3.777344 -2.777344 3.824219 -2.925781 3.824219 -3.101562 C 3.824219 -3.429688 3.6875 -3.675781 3.417969 -3.84375 C 3.128906 -4.019531 2.699219 -4.105469 2.128906 -4.105469 L 0.4375 -4.105469 C 0.425781 -4.105469 0.417969 -4.105469 0.414062 -4.097656 C 0.40625 -4.089844 0.402344 -4.078125 0.402344 -4.066406 L 0.402344 -0.125 C 0.402344 -0.121094 0.402344 -0.117188 0.40625 -0.113281 C 0.410156 -0.109375 0.417969 -0.105469 0.425781 -0.105469 Z M 2.21875 -2.671875 C 2.324219 -2.671875 2.40625 -2.699219 2.46875 -2.753906 C 2.523438 -2.804688 2.550781 -2.871094 2.550781 -2.953125 C 2.550781 -3.039062 2.519531 -3.113281 2.453125 -3.167969 C 2.382812 -3.226562 2.292969 -3.253906 2.179688 -3.253906 L 1.714844 -3.253906 C 1.699219 -3.253906 1.6875 -3.253906 1.679688 -3.253906 C 1.675781 -3.25 1.675781 -3.25 1.675781 -3.25 C 1.679688 -3.253906 1.679688 -3.253906 1.683594 -3.257812 C 1.6875 -3.261719 1.691406 -3.265625 1.691406 -3.269531 C 1.691406 -3.265625 1.691406 -3.257812 1.691406 -3.25 L 1.691406 -2.691406 C 1.691406 -2.675781 1.691406 -2.667969 1.695312 -2.65625 C 1.695312 -2.65625 1.691406 -2.660156 1.691406 -2.660156 C 1.6875 -2.667969 1.679688 -2.671875 1.675781 -2.671875 C 1.675781 -2.671875 1.679688 -2.671875 1.679688 -2.671875 Z M 2.21875 -2.460938 L 1.679688 -2.460938 C 1.613281 -2.460938 1.558594 -2.484375 1.523438 -2.527344 C 1.492188 -2.566406 1.476562 -2.621094 1.476562 -2.691406 L 1.476562 -3.25 C 1.476562 -3.320312 1.5 -3.378906 1.542969 -3.414062 C 1.582031 -3.449219 1.636719 -3.46875 1.714844 -3.46875 L 2.179688 -3.46875 C 2.34375 -3.46875 2.480469 -3.421875 2.589844 -3.332031 C 2.707031 -3.234375 2.765625 -3.109375 2.765625 -2.953125 C 2.765625 -2.808594 2.710938 -2.6875 2.609375 -2.597656 C 2.511719 -2.503906 2.378906 -2.460938 2.21875 -2.460938 Z M 2.191406 -0.957031 C 2.316406 -0.957031 2.414062 -0.992188 2.484375 -1.058594 C 2.550781 -1.125 2.585938 -1.203125 2.585938 -1.289062 C 2.585938 -1.375 2.554688 -1.445312 2.492188 -1.5 C 2.425781 -1.558594 2.335938 -1.585938 2.21875 -1.585938 L 1.714844 -1.585938 C 1.699219 -1.585938 1.6875 -1.585938 1.679688 -1.582031 C 1.683594 -1.582031 1.683594 -1.585938 1.6875 -1.589844 C 1.691406 -1.589844 1.691406 -1.59375 1.691406 -1.59375 C 1.691406 -1.589844 1.691406 -1.582031 1.691406 -1.574219 L 1.691406 -0.976562 C 1.691406 -0.960938 1.691406 -0.949219 1.695312 -0.941406 C 1.695312 -0.941406 1.691406 -0.945312 1.691406 -0.945312 C 1.6875 -0.953125 1.679688 -0.957031 1.675781 -0.957031 C 1.675781 -0.957031 1.679688 -0.957031 1.679688 -0.957031 Z M 2.191406 -0.746094 L 1.679688 -0.746094 C 1.613281 -0.746094 1.558594 -0.769531 1.523438 -0.8125 C 1.492188 -0.851562 1.476562 -0.90625 1.476562 -0.976562 L 1.476562 -1.574219 C 1.476562 -1.644531 1.496094 -1.699219 1.539062 -1.738281 C 1.578125 -1.777344 1.636719 -1.796875 1.714844 -1.796875 L 2.21875 -1.796875 C 2.386719 -1.796875 2.523438 -1.753906 2.632812 -1.660156 C 2.742188 -1.5625 2.796875 -1.4375 2.796875 -1.289062 C 2.796875 -1.140625 2.742188 -1.015625 2.632812 -0.90625 C 2.523438 -0.800781 2.375 -0.746094 2.191406 -0.746094 Z M 2.191406 -0.746094 "/></g></g><g style="fill:#ffdf2b;fill-opacity:1;"><g transform="translate(64.877368, 20.197291)"><path style="stroke:none" d="M 0.246094 0.105469 C 0.183594 0.105469 0.132812 0.0859375 0.0898438 0.0390625 C 0.0546875 0 0.0351562 -0.0546875 0.0351562 -0.121094 C 0.0351562 -0.15625 0.0429688 -0.199219 0.0585938 -0.242188 L 1.433594 -4.121094 C 1.460938 -4.1875 1.492188 -4.238281 1.527344 -4.265625 C 1.570312 -4.300781 1.628906 -4.320312 1.703125 -4.320312 L 2.824219 -4.320312 C 2.890625 -4.320312 2.957031 -4.296875 3.011719 -4.253906 C 3.0625 -4.214844 3.097656 -4.164062 3.125 -4.101562 L 3.125 -4.097656 L 4.492188 -0.222656 L 4.492188 -0.21875 C 4.503906 -0.179688 4.507812 -0.148438 4.507812 -0.125 C 4.507812 -0.0703125 4.496094 -0.0234375 4.46875 0.0195312 C 4.433594 0.078125 4.378906 0.105469 4.308594 0.105469 L 3.199219 0.105469 C 3.140625 0.105469 3.09375 0.0898438 3.050781 0.0585938 C 3.011719 0.03125 2.984375 -0.0117188 2.96875 -0.0664062 L 3.074219 -0.0976562 L 2.972656 -0.0625 L 2.75 -0.714844 L 2.851562 -0.75 L 2.753906 -0.707031 C 2.75 -0.71875 2.746094 -0.722656 2.742188 -0.730469 C 2.742188 -0.730469 2.742188 -0.730469 2.742188 -0.734375 C 2.742188 -0.730469 2.742188 -0.730469 2.746094 -0.726562 C 2.753906 -0.71875 2.761719 -0.714844 2.773438 -0.710938 C 2.769531 -0.710938 2.769531 -0.710938 2.765625 -0.710938 L 1.5625 -0.710938 C 1.558594 -0.710938 1.558594 -0.710938 1.558594 -0.710938 C 1.5625 -0.710938 1.566406 -0.714844 1.570312 -0.714844 C 1.574219 -0.71875 1.578125 -0.722656 1.578125 -0.726562 L 1.578125 -0.722656 L 1.34375 -0.046875 C 1.324219 0.00390625 1.292969 0.0429688 1.25 0.0703125 C 1.210938 0.09375 1.160156 0.105469 1.105469 0.105469 Z M 0.246094 -0.105469 L 1.105469 -0.105469 C 1.121094 -0.105469 1.128906 -0.109375 1.136719 -0.113281 C 1.140625 -0.113281 1.140625 -0.117188 1.144531 -0.125 L 1.242188 -0.0859375 L 1.144531 -0.121094 L 1.375 -0.789062 L 1.476562 -0.753906 L 1.375 -0.785156 C 1.386719 -0.828125 1.410156 -0.863281 1.445312 -0.886719 C 1.476562 -0.914062 1.515625 -0.925781 1.5625 -0.925781 L 2.765625 -0.925781 C 2.820312 -0.925781 2.863281 -0.910156 2.894531 -0.878906 C 2.914062 -0.859375 2.933594 -0.832031 2.949219 -0.792969 L 2.949219 -0.789062 L 3.175781 -0.128906 L 3.175781 -0.125 C 3.175781 -0.117188 3.179688 -0.109375 3.183594 -0.109375 C 3.183594 -0.105469 3.1875 -0.105469 3.199219 -0.105469 L 4.308594 -0.105469 C 4.300781 -0.105469 4.292969 -0.101562 4.289062 -0.09375 C 4.292969 -0.101562 4.292969 -0.109375 4.292969 -0.125 C 4.292969 -0.132812 4.292969 -0.144531 4.285156 -0.167969 L 4.390625 -0.191406 L 4.289062 -0.15625 L 2.925781 -4.023438 L 3.027344 -4.058594 L 2.929688 -4.019531 C 2.917969 -4.046875 2.898438 -4.070312 2.878906 -4.085938 C 2.863281 -4.101562 2.84375 -4.105469 2.824219 -4.105469 L 1.703125 -4.105469 C 1.6875 -4.105469 1.675781 -4.105469 1.667969 -4.105469 C 1.664062 -4.101562 1.664062 -4.101562 1.660156 -4.101562 C 1.664062 -4.101562 1.664062 -4.101562 1.664062 -4.105469 C 1.65625 -4.097656 1.644531 -4.078125 1.632812 -4.046875 L 1.535156 -4.082031 L 1.632812 -4.046875 L 0.261719 -0.175781 C 0.253906 -0.152344 0.25 -0.132812 0.25 -0.121094 C 0.25 -0.113281 0.25 -0.105469 0.25 -0.101562 C 0.25 -0.105469 0.246094 -0.105469 0.246094 -0.105469 Z M 2.480469 -1.890625 C 2.480469 -1.890625 2.484375 -1.890625 2.484375 -1.890625 C 2.480469 -1.890625 2.480469 -1.890625 2.476562 -1.886719 C 2.46875 -1.886719 2.464844 -1.882812 2.457031 -1.875 C 2.445312 -1.863281 2.4375 -1.851562 2.4375 -1.839844 C 2.433594 -1.847656 2.433594 -1.859375 2.429688 -1.871094 L 2.53125 -1.898438 L 2.433594 -1.863281 L 2.089844 -2.832031 L 2.191406 -2.867188 L 2.09375 -2.828125 C 2.097656 -2.820312 2.101562 -2.8125 2.109375 -2.808594 C 2.125 -2.796875 2.140625 -2.789062 2.15625 -2.789062 C 2.175781 -2.789062 2.191406 -2.796875 2.207031 -2.808594 C 2.214844 -2.8125 2.21875 -2.820312 2.222656 -2.828125 L 2.125 -2.867188 L 2.222656 -2.832031 L 1.875 -1.859375 L 1.871094 -1.855469 L 1.875 -1.855469 C 1.871094 -1.851562 1.871094 -1.851562 1.871094 -1.84375 C 1.871094 -1.855469 1.867188 -1.867188 1.855469 -1.878906 C 1.847656 -1.882812 1.84375 -1.886719 1.835938 -1.890625 C 1.835938 -1.890625 1.832031 -1.890625 1.832031 -1.890625 C 1.832031 -1.890625 1.832031 -1.890625 1.835938 -1.890625 Z M 2.480469 -1.675781 L 1.835938 -1.675781 C 1.785156 -1.675781 1.742188 -1.691406 1.710938 -1.71875 C 1.675781 -1.75 1.660156 -1.792969 1.660156 -1.84375 C 1.660156 -1.886719 1.667969 -1.921875 1.683594 -1.949219 L 1.777344 -1.902344 L 1.675781 -1.9375 L 2.023438 -2.90625 C 2.035156 -2.933594 2.050781 -2.953125 2.070312 -2.972656 C 2.09375 -2.992188 2.125 -3.003906 2.15625 -3.003906 C 2.191406 -3.003906 2.21875 -2.992188 2.246094 -2.972656 C 2.265625 -2.953125 2.28125 -2.933594 2.289062 -2.90625 L 2.292969 -2.90625 L 2.636719 -1.925781 L 2.636719 -1.921875 C 2.644531 -1.882812 2.652344 -1.855469 2.652344 -1.839844 C 2.652344 -1.789062 2.632812 -1.75 2.601562 -1.71875 C 2.570312 -1.691406 2.53125 -1.675781 2.480469 -1.675781 Z M 2.480469 -1.675781 "/></g></g><g style="fill:#ffdf2b;fill-opacity:1;"><g transform="translate(5.041166, 14.521681)"><path style="stroke:none" d="M 4.78125 -3.40625 C 4.78125 -3.082031 4.703125 -2.800781 4.546875 -2.5625 C 4.390625 -2.320312 4.164062 -2.132812 3.875 -2 C 3.59375 -1.875 3.269531 -1.8125 2.90625 -1.8125 L 1.984375 -1.8125 C 1.921875 -1.8125 1.890625 -1.785156 1.890625 -1.734375 L 1.890625 -0.203125 C 1.890625 -0.128906 1.867188 -0.078125 1.828125 -0.046875 C 1.796875 -0.015625 1.742188 0 1.671875 0 L 0.53125 0 C 0.457031 0 0.410156 -0.0078125 0.390625 -0.03125 C 0.367188 -0.0625 0.359375 -0.109375 0.359375 -0.171875 L 0.359375 -4.890625 C 0.359375 -4.992188 0.398438 -5.046875 0.484375 -5.046875 L 2.734375 -5.046875 C 3.109375 -5.046875 3.453125 -4.984375 3.765625 -4.859375 C 4.078125 -4.734375 4.320312 -4.546875 4.5 -4.296875 C 4.6875 -4.054688 4.78125 -3.757812 4.78125 -3.40625 Z M 3.203125 -3.421875 C 3.203125 -3.578125 3.144531 -3.703125 3.03125 -3.796875 C 2.925781 -3.898438 2.796875 -3.953125 2.640625 -3.953125 L 2.046875 -3.953125 C 1.992188 -3.953125 1.953125 -3.941406 1.921875 -3.921875 C 1.898438 -3.898438 1.890625 -3.863281 1.890625 -3.8125 L 1.890625 -3.046875 C 1.890625 -2.992188 1.898438 -2.953125 1.921875 -2.921875 C 1.941406 -2.898438 1.972656 -2.890625 2.015625 -2.890625 L 2.671875 -2.890625 C 2.835938 -2.890625 2.96875 -2.941406 3.0625 -3.046875 C 3.15625 -3.148438 3.203125 -3.273438 3.203125 -3.421875 Z M 3.203125 -3.421875 "/></g></g><g style="fill:#ffdf2b;fill-opacity:1;"><g transform="translate(10.010715, 14.521681)"><path style="stroke:none" d="M 0.296875 0 C 0.253906 0 0.222656 -0.0078125 0.203125 -0.03125 C 0.179688 -0.0625 0.171875 -0.0976562 0.171875 -0.140625 C 0.171875 -0.171875 0.175781 -0.207031 0.1875 -0.25 L 1.828125 -4.890625 C 1.859375 -4.941406 1.882812 -4.976562 1.90625 -5 C 1.9375 -5.03125 1.976562 -5.046875 2.03125 -5.046875 L 3.375 -5.046875 C 3.425781 -5.046875 3.472656 -5.023438 3.515625 -4.984375 C 3.566406 -4.953125 3.601562 -4.910156 3.625 -4.859375 L 5.25 -0.234375 C 5.257812 -0.191406 5.265625 -0.164062 5.265625 -0.15625 C 5.265625 -0.113281 5.253906 -0.078125 5.234375 -0.046875 C 5.222656 -0.015625 5.195312 0 5.15625 0 L 3.828125 0 C 3.753906 0 3.703125 -0.0351562 3.671875 -0.109375 L 3.40625 -0.890625 C 3.394531 -0.921875 3.382812 -0.941406 3.375 -0.953125 C 3.363281 -0.972656 3.34375 -0.984375 3.3125 -0.984375 L 1.875 -0.984375 C 1.8125 -0.984375 1.773438 -0.957031 1.765625 -0.90625 L 1.484375 -0.109375 C 1.460938 -0.0351562 1.410156 0 1.328125 0 Z M 2.96875 -2.140625 C 3.019531 -2.140625 3.046875 -2.160156 3.046875 -2.203125 C 3.046875 -2.210938 3.039062 -2.234375 3.03125 -2.265625 L 2.625 -3.4375 C 2.613281 -3.457031 2.597656 -3.46875 2.578125 -3.46875 C 2.566406 -3.46875 2.554688 -3.457031 2.546875 -3.4375 L 2.125 -2.28125 C 2.113281 -2.257812 2.109375 -2.234375 2.109375 -2.203125 C 2.109375 -2.160156 2.140625 -2.140625 2.203125 -2.140625 Z M 2.96875 -2.140625 "/></g></g><g style="fill:#ffdf2b;fill-opacity:1;"><g transform="translate(15.442548, 14.521681)"><path style="stroke:none" d="M 0.359375 -4.890625 C 0.359375 -4.941406 0.367188 -4.976562 0.390625 -5 C 0.410156 -5.03125 0.441406 -5.046875 0.484375 -5.046875 L 1.78125 -5.046875 C 1.851562 -5.046875 1.890625 -5 1.890625 -4.90625 L 1.890625 -1.203125 C 1.890625 -1.171875 1.894531 -1.144531 1.90625 -1.125 C 1.925781 -1.113281 1.953125 -1.109375 1.984375 -1.109375 L 4.03125 -1.109375 C 4.132812 -1.109375 4.1875 -1.066406 4.1875 -0.984375 L 4.1875 -0.15625 C 4.1875 -0.101562 4.171875 -0.0625 4.140625 -0.03125 C 4.109375 -0.0078125 4.066406 0 4.015625 0 L 0.53125 0 C 0.46875 0 0.421875 -0.0078125 0.390625 -0.03125 C 0.367188 -0.0625 0.359375 -0.109375 0.359375 -0.171875 Z M 0.359375 -4.890625 "/></g></g><g style="fill:#ffdf2b;fill-opacity:1;"><g transform="translate(19.813847, 14.521681)"><path style="stroke:none" d="M 0.359375 -4.890625 C 0.359375 -4.941406 0.367188 -4.976562 0.390625 -5 C 0.410156 -5.03125 0.441406 -5.046875 0.484375 -5.046875 L 1.78125 -5.046875 C 1.851562 -5.046875 1.890625 -5 1.890625 -4.90625 L 1.890625 -1.203125 C 1.890625 -1.171875 1.894531 -1.144531 1.90625 -1.125 C 1.925781 -1.113281 1.953125 -1.109375 1.984375 -1.109375 L 4.03125 -1.109375 C 4.132812 -1.109375 4.1875 -1.066406 4.1875 -0.984375 L 4.1875 -0.15625 C 4.1875 -0.101562 4.171875 -0.0625 4.140625 -0.03125 C 4.109375 -0.0078125 4.066406 0 4.015625 0 L 0.53125 0 C 0.46875 0 0.421875 -0.0078125 0.390625 -0.03125 C 0.367188 -0.0625 0.359375 -0.109375 0.359375 -0.171875 Z M 0.359375 -4.890625 "/></g></g><g style="fill:#ffdf2b;fill-opacity:1;"><g transform="translate(24.185148, 14.521681)"><path style="stroke:none" d="M 1.78125 -5.046875 C 1.851562 -5.046875 1.890625 -5 1.890625 -4.90625 L 1.890625 -0.203125 C 1.890625 -0.128906 1.867188 -0.078125 1.828125 -0.046875 C 1.796875 -0.015625 1.742188 0 1.671875 0 L 0.53125 0 C 0.46875 0 0.421875 -0.0078125 0.390625 -0.03125 C 0.367188 -0.0625 0.359375 -0.109375 0.359375 -0.171875 L 0.359375 -4.890625 C 0.359375 -4.941406 0.367188 -4.976562 0.390625 -5 C 0.410156 -5.03125 0.441406 -5.046875 0.484375 -5.046875 Z M 1.78125 -5.046875 "/></g></g><g style="fill:#ffdf2b;fill-opacity:1;"><g transform="translate(26.435382, 14.521681)"><path style="stroke:none" d="M 0.296875 0 C 0.253906 0 0.222656 -0.0078125 0.203125 -0.03125 C 0.179688 -0.0625 0.171875 -0.0976562 0.171875 -0.140625 C 0.171875 -0.171875 0.175781 -0.207031 0.1875 -0.25 L 1.828125 -4.890625 C 1.859375 -4.941406 1.882812 -4.976562 1.90625 -5 C 1.9375 -5.03125 1.976562 -5.046875 2.03125 -5.046875 L 3.375 -5.046875 C 3.425781 -5.046875 3.472656 -5.023438 3.515625 -4.984375 C 3.566406 -4.953125 3.601562 -4.910156 3.625 -4.859375 L 5.25 -0.234375 C 5.257812 -0.191406 5.265625 -0.164062 5.265625 -0.15625 C 5.265625 -0.113281 5.253906 -0.078125 5.234375 -0.046875 C 5.222656 -0.015625 5.195312 0 5.15625 0 L 3.828125 0 C 3.753906 0 3.703125 -0.0351562 3.671875 -0.109375 L 3.40625 -0.890625 C 3.394531 -0.921875 3.382812 -0.941406 3.375 -0.953125 C 3.363281 -0.972656 3.34375 -0.984375 3.3125 -0.984375 L 1.875 -0.984375 C 1.8125 -0.984375 1.773438 -0.957031 1.765625 -0.90625 L 1.484375 -0.109375 C 1.460938 -0.0351562 1.410156 0 1.328125 0 Z M 2.96875 -2.140625 C 3.019531 -2.140625 3.046875 -2.160156 3.046875 -2.203125 C 3.046875 -2.210938 3.039062 -2.234375 3.03125 -2.265625 L 2.625 -3.4375 C 2.613281 -3.457031 2.597656 -3.46875 2.578125 -3.46875 C 2.566406 -3.46875 2.554688 -3.457031 2.546875 -3.4375 L 2.125 -2.28125 C 2.113281 -2.257812 2.109375 -2.234375 2.109375 -2.203125 C 2.109375 -2.160156 2.140625 -2.140625 2.203125 -2.140625 Z M 2.96875 -2.140625 "/></g></g><g style="fill:#ffdf2b;fill-opacity:1;"><g transform="translate(31.867213, 14.521681)"><path style="stroke:none" d="M 0.1875 -4.890625 C 0.1875 -4.929688 0.203125 -4.96875 0.234375 -5 C 0.265625 -5.03125 0.304688 -5.046875 0.359375 -5.046875 L 4.421875 -5.046875 C 4.472656 -5.046875 4.515625 -5.03125 4.546875 -5 C 4.578125 -4.96875 4.59375 -4.929688 4.59375 -4.890625 L 4.59375 -4.078125 C 4.59375 -3.992188 4.539062 -3.953125 4.4375 -3.953125 L 3.234375 -3.953125 C 3.179688 -3.953125 3.15625 -3.925781 3.15625 -3.875 L 3.15625 -0.15625 C 3.15625 -0.101562 3.144531 -0.0625 3.125 -0.03125 C 3.101562 -0.0078125 3.070312 0 3.03125 0 L 1.734375 0 C 1.660156 0 1.625 -0.046875 1.625 -0.140625 L 1.625 -3.859375 C 1.625 -3.921875 1.597656 -3.953125 1.546875 -3.953125 L 0.34375 -3.953125 C 0.238281 -3.953125 0.1875 -3.992188 0.1875 -4.078125 Z M 0.1875 -4.890625 "/></g></g><g style="fill:#ffdf2b;fill-opacity:1;"><g transform="translate(36.65321, 14.521681)"><path style="stroke:none" d="M 1.78125 -5.046875 C 1.851562 -5.046875 1.890625 -5 1.890625 -4.90625 L 1.890625 -0.203125 C 1.890625 -0.128906 1.867188 -0.078125 1.828125 -0.046875 C 1.796875 -0.015625 1.742188 0 1.671875 0 L 0.53125 0 C 0.46875 0 0.421875 -0.0078125 0.390625 -0.03125 C 0.367188 -0.0625 0.359375 -0.109375 0.359375 -0.171875 L 0.359375 -4.890625 C 0.359375 -4.941406 0.367188 -4.976562 0.390625 -5 C 0.410156 -5.03125 0.441406 -5.046875 0.484375 -5.046875 Z M 1.78125 -5.046875 "/></g></g><g style="fill:#ffdf2b;fill-opacity:1;"><g transform="translate(38.903441, 14.521681)"><path style="stroke:none" d="M 4.8125 -5.046875 C 4.84375 -5.046875 4.867188 -5.03125 4.890625 -5 C 4.921875 -4.976562 4.9375 -4.945312 4.9375 -4.90625 C 4.9375 -4.875 4.9375 -4.851562 4.9375 -4.84375 L 3.359375 -0.171875 C 3.328125 -0.0546875 3.242188 0 3.109375 0 L 2 0 C 1.863281 0 1.78125 -0.0546875 1.75 -0.171875 L 0.171875 -4.84375 C 0.160156 -4.875 0.15625 -4.894531 0.15625 -4.90625 C 0.15625 -4.945312 0.171875 -4.976562 0.203125 -5 C 0.234375 -5.03125 0.269531 -5.046875 0.3125 -5.046875 L 1.625 -5.046875 C 1.707031 -5.046875 1.757812 -5 1.78125 -4.90625 L 2.703125 -1.921875 C 2.710938 -1.890625 2.722656 -1.875 2.734375 -1.875 C 2.742188 -1.875 2.753906 -1.890625 2.765625 -1.921875 L 3.609375 -4.90625 C 3.617188 -4.945312 3.640625 -4.976562 3.671875 -5 C 3.710938 -5.03125 3.753906 -5.046875 3.796875 -5.046875 Z M 4.8125 -5.046875 "/></g></g><g style="fill:#ffdf2b;fill-opacity:1;"><g transform="translate(44.008956, 14.521681)"><path style="stroke:none" d="M 0.359375 -4.890625 C 0.359375 -4.992188 0.398438 -5.046875 0.484375 -5.046875 L 4.15625 -5.046875 C 4.238281 -5.046875 4.28125 -5 4.28125 -4.90625 L 4.265625 -4.109375 C 4.265625 -3.984375 4.207031 -3.921875 4.09375 -3.921875 L 2.046875 -3.921875 C 1.941406 -3.921875 1.890625 -3.878906 1.890625 -3.796875 L 1.890625 -3.21875 C 1.890625 -3.175781 1.898438 -3.140625 1.921875 -3.109375 C 1.953125 -3.085938 1.984375 -3.078125 2.015625 -3.078125 L 3.234375 -3.078125 C 3.335938 -3.078125 3.390625 -3.03125 3.390625 -2.9375 L 3.390625 -2.09375 C 3.390625 -2.019531 3.347656 -1.984375 3.265625 -1.984375 L 2 -1.984375 C 1.96875 -1.984375 1.941406 -1.972656 1.921875 -1.953125 C 1.898438 -1.941406 1.890625 -1.921875 1.890625 -1.890625 L 1.890625 -1.203125 C 1.890625 -1.171875 1.894531 -1.144531 1.90625 -1.125 C 1.925781 -1.113281 1.953125 -1.109375 1.984375 -1.109375 L 4.1875 -1.109375 C 4.289062 -1.109375 4.34375 -1.066406 4.34375 -0.984375 L 4.34375 -0.15625 C 4.34375 -0.101562 4.328125 -0.0625 4.296875 -0.03125 C 4.265625 -0.0078125 4.222656 0 4.171875 0 L 0.53125 0 C 0.46875 0 0.421875 -0.0078125 0.390625 -0.03125 C 0.367188 -0.0625 0.359375 -0.109375 0.359375 -0.171875 Z M 0.359375 -4.890625 "/></g></g><g style="fill:#ffdf2b;fill-opacity:1;"><g transform="translate(48.57061, 14.521681)"><path style="stroke:none" d=""/></g></g><g style="fill:#ffdf2b;fill-opacity:1;"><g transform="translate(49.930268, 14.521681)"><path style="stroke:none" d="M 2.609375 -5.109375 C 2.992188 -5.109375 3.335938 -5.039062 3.640625 -4.90625 C 3.941406 -4.769531 4.1875 -4.582031 4.375 -4.34375 C 4.570312 -4.113281 4.703125 -3.847656 4.765625 -3.546875 C 4.773438 -3.492188 4.78125 -3.453125 4.78125 -3.421875 C 4.78125 -3.378906 4.769531 -3.347656 4.75 -3.328125 C 4.738281 -3.316406 4.710938 -3.3125 4.671875 -3.3125 L 3.484375 -3.234375 C 3.441406 -3.234375 3.410156 -3.238281 3.390625 -3.25 C 3.378906 -3.269531 3.367188 -3.304688 3.359375 -3.359375 C 3.316406 -3.578125 3.238281 -3.75 3.125 -3.875 C 3.019531 -4 2.863281 -4.0625 2.65625 -4.0625 C 2.382812 -4.0625 2.175781 -3.941406 2.03125 -3.703125 C 1.894531 -3.472656 1.828125 -3.09375 1.828125 -2.5625 C 1.828125 -2.007812 1.890625 -1.617188 2.015625 -1.390625 C 2.148438 -1.160156 2.363281 -1.046875 2.65625 -1.046875 C 2.894531 -1.046875 3.097656 -1.101562 3.265625 -1.21875 C 3.429688 -1.34375 3.570312 -1.550781 3.6875 -1.84375 C 3.707031 -1.882812 3.75 -1.90625 3.8125 -1.90625 C 3.84375 -1.90625 3.863281 -1.898438 3.875 -1.890625 L 4.734375 -1.71875 C 4.796875 -1.695312 4.828125 -1.644531 4.828125 -1.5625 C 4.828125 -1.4375 4.75 -1.238281 4.59375 -0.96875 C 4.4375 -0.707031 4.191406 -0.46875 3.859375 -0.25 C 3.523438 -0.0390625 3.109375 0.0625 2.609375 0.0625 C 2.117188 0.0625 1.691406 -0.0507812 1.328125 -0.28125 C 0.972656 -0.507812 0.695312 -0.820312 0.5 -1.21875 C 0.300781 -1.625 0.203125 -2.082031 0.203125 -2.59375 C 0.203125 -3.09375 0.300781 -3.535156 0.5 -3.921875 C 0.695312 -4.304688 0.976562 -4.597656 1.34375 -4.796875 C 1.707031 -5.003906 2.128906 -5.109375 2.609375 -5.109375 Z M 2.609375 -5.109375 "/></g></g><g style="fill:#ffdf2b;fill-opacity:1;"><g transform="translate(54.940605, 14.521681)"><path style="stroke:none" d="M 0.296875 0 C 0.253906 0 0.222656 -0.0078125 0.203125 -0.03125 C 0.179688 -0.0625 0.171875 -0.0976562 0.171875 -0.140625 C 0.171875 -0.171875 0.175781 -0.207031 0.1875 -0.25 L 1.828125 -4.890625 C 1.859375 -4.941406 1.882812 -4.976562 1.90625 -5 C 1.9375 -5.03125 1.976562 -5.046875 2.03125 -5.046875 L 3.375 -5.046875 C 3.425781 -5.046875 3.472656 -5.023438 3.515625 -4.984375 C 3.566406 -4.953125 3.601562 -4.910156 3.625 -4.859375 L 5.25 -0.234375 C 5.257812 -0.191406 5.265625 -0.164062 5.265625 -0.15625 C 5.265625 -0.113281 5.253906 -0.078125 5.234375 -0.046875 C 5.222656 -0.015625 5.195312 0 5.15625 0 L 3.828125 0 C 3.753906 0 3.703125 -0.0351562 3.671875 -0.109375 L 3.40625 -0.890625 C 3.394531 -0.921875 3.382812 -0.941406 3.375 -0.953125 C 3.363281 -0.972656 3.34375 -0.984375 3.3125 -0.984375 L 1.875 -0.984375 C 1.8125 -0.984375 1.773438 -0.957031 1.765625 -0.90625 L 1.484375 -0.109375 C 1.460938 -0.0351562 1.410156 0 1.328125 0 Z M 2.96875 -2.140625 C 3.019531 -2.140625 3.046875 -2.160156 3.046875 -2.203125 C 3.046875 -2.210938 3.039062 -2.234375 3.03125 -2.265625 L 2.625 -3.4375 C 2.613281 -3.457031 2.597656 -3.46875 2.578125 -3.46875 C 2.566406 -3.46875 2.554688 -3.457031 2.546875 -3.4375 L 2.125 -2.28125 C 2.113281 -2.257812 2.109375 -2.234375 2.109375 -2.203125 C 2.109375 -2.160156 2.140625 -2.140625 2.203125 -2.140625 Z M 2.96875 -2.140625 "/></g></g><g style="fill:#ffdf2b;fill-opacity:1;"><g transform="translate(60.37244, 14.521681)"><path style="stroke:none" d="M 4.765625 -0.21875 C 4.773438 -0.195312 4.78125 -0.171875 4.78125 -0.140625 C 4.78125 -0.0976562 4.765625 -0.0625 4.734375 -0.03125 C 4.710938 -0.0078125 4.679688 0 4.640625 0 L 3.328125 0 C 3.234375 0 3.171875 -0.046875 3.140625 -0.140625 L 2.5 -1.890625 C 2.488281 -1.929688 2.46875 -1.957031 2.4375 -1.96875 C 2.40625 -1.988281 2.359375 -2 2.296875 -2 L 1.984375 -2 C 1.953125 -2 1.925781 -1.988281 1.90625 -1.96875 C 1.894531 -1.957031 1.890625 -1.945312 1.890625 -1.9375 L 1.890625 -0.203125 C 1.890625 -0.128906 1.867188 -0.078125 1.828125 -0.046875 C 1.796875 -0.015625 1.742188 0 1.671875 0 L 0.53125 0 C 0.457031 0 0.410156 -0.0078125 0.390625 -0.03125 C 0.367188 -0.0625 0.359375 -0.109375 0.359375 -0.171875 L 0.359375 -4.890625 C 0.359375 -4.992188 0.398438 -5.046875 0.484375 -5.046875 L 2.75 -5.046875 C 3.40625 -5.046875 3.914062 -4.914062 4.28125 -4.65625 C 4.644531 -4.40625 4.828125 -4.054688 4.828125 -3.609375 C 4.828125 -3.296875 4.742188 -3.015625 4.578125 -2.765625 C 4.410156 -2.523438 4.195312 -2.351562 3.9375 -2.25 C 3.90625 -2.238281 3.890625 -2.21875 3.890625 -2.1875 C 3.890625 -2.164062 3.894531 -2.144531 3.90625 -2.125 Z M 2.6875 -3.015625 C 2.863281 -3.015625 3 -3.054688 3.09375 -3.140625 C 3.1875 -3.234375 3.234375 -3.351562 3.234375 -3.5 C 3.234375 -3.675781 3.175781 -3.804688 3.0625 -3.890625 C 2.945312 -3.984375 2.8125 -4.03125 2.65625 -4.03125 L 2.046875 -4.03125 C 1.992188 -4.03125 1.953125 -4.019531 1.921875 -4 C 1.898438 -3.976562 1.890625 -3.945312 1.890625 -3.90625 L 1.890625 -3.15625 C 1.890625 -3.101562 1.894531 -3.066406 1.90625 -3.046875 C 1.925781 -3.023438 1.960938 -3.015625 2.015625 -3.015625 Z M 2.6875 -3.015625 "/></g></g><g style="fill:#ffdf2b;fill-opacity:1;"><g transform="translate(65.396373, 14.521681)"><path style="stroke:none" d="M 0.359375 -4.890625 C 0.359375 -4.992188 0.398438 -5.046875 0.484375 -5.046875 L 4.15625 -5.046875 C 4.238281 -5.046875 4.28125 -5 4.28125 -4.90625 L 4.265625 -4.109375 C 4.265625 -3.984375 4.207031 -3.921875 4.09375 -3.921875 L 2.046875 -3.921875 C 1.941406 -3.921875 1.890625 -3.878906 1.890625 -3.796875 L 1.890625 -3.21875 C 1.890625 -3.175781 1.898438 -3.140625 1.921875 -3.109375 C 1.953125 -3.085938 1.984375 -3.078125 2.015625 -3.078125 L 3.234375 -3.078125 C 3.335938 -3.078125 3.390625 -3.03125 3.390625 -2.9375 L 3.390625 -2.09375 C 3.390625 -2.019531 3.347656 -1.984375 3.265625 -1.984375 L 2 -1.984375 C 1.96875 -1.984375 1.941406 -1.972656 1.921875 -1.953125 C 1.898438 -1.941406 1.890625 -1.921875 1.890625 -1.890625 L 1.890625 -1.203125 C 1.890625 -1.171875 1.894531 -1.144531 1.90625 -1.125 C 1.925781 -1.113281 1.953125 -1.109375 1.984375 -1.109375 L 4.1875 -1.109375 C 4.289062 -1.109375 4.34375 -1.066406 4.34375 -0.984375 L 4.34375 -0.15625 C 4.34375 -0.101562 4.328125 -0.0625 4.296875 -0.03125 C 4.265625 -0.0078125 4.222656 0 4.171875 0 L 0.53125 0 C 0.46875 0 0.421875 -0.0078125 0.390625 -0.03125 C 0.367188 -0.0625 0.359375 -0.109375 0.359375 -0.171875 Z M 0.359375 -4.890625 "/></g></g></g></svg>